<svg width="690" height="941" viewBox="0 0 690 941" fill="none" xmlns="http://www.w3.org/2000/svg">
<path d="M324.432 9.25015L324.422 9.25134C318.059 9.97437 305.93 12.3306 297.289 14.5252C244.056 27.9407 202.898 56.1793 173.793 99.4892L173.784 99.5023L173.776 99.5154C155.346 127.16 146.646 148.118 139.172 183.654L97.0454 183.997H97.0442L96.1006 184.005C72.7474 184.199 60.3792 184.301 53.1693 184.764C49.4683 185.002 46.6281 185.359 44.1262 186.034C41.5295 186.734 39.658 187.688 38.0683 188.516C28.0363 193.48 19.0492 202.37 13.7241 212.542C13.7215 212.547 13.7188 212.552 13.7161 212.557L9.999 219.593L9.0234 221.44L9.01472 223.528L8.61472 319.795L8.61467 319.806C8.48156 366.797 8.41371 391.08 8.7 404.216C8.84175 410.719 9.07461 414.905 9.5103 417.885C10.0152 421.338 10.815 423.304 11.7787 425.232L11.8266 425.327L11.8769 425.422C16.1767 433.506 22.7757 439.373 32.0178 441.784C39.7163 443.827 47.96 441.854 54.4431 438.365C60.976 434.849 67.1652 429.027 70.0025 421.493L70.0133 421.464L70.0239 421.435C70.4032 420.406 70.5586 419.407 70.6231 418.98C70.7131 418.383 70.7844 417.731 70.8442 417.071C70.9647 415.743 71.069 414.039 71.162 412.014C71.3488 407.945 71.5046 402.246 71.6301 394.96C71.8813 380.37 72.0146 359.18 72.0146 331.43C72.0146 302.835 72.1147 281.828 72.3468 267.754C72.4631 260.704 72.6113 255.475 72.7912 251.93C72.8526 250.72 72.9152 249.76 72.9759 249.022C73.4246 248.863 74.2007 248.643 75.4745 248.429C80.0827 247.654 88.0452 247.397 102.848 247.397C107.587 247.397 112.032 247.424 115.89 247.472C112.441 254.846 111.015 262.647 111.015 272.097C111.015 292.517 121.744 309.983 139.697 319.818L139.713 319.827L139.729 319.835C143.625 321.949 146.9 323.656 151.034 324.542C154.887 325.367 159.153 325.397 164.848 325.397C170.329 325.397 174.472 325.32 178.062 324.655C182.03 323.92 184.969 322.547 188.206 320.784C198.999 315.055 208.219 304.973 213.467 293.86L213.486 293.821L213.503 293.783C215.152 290.199 216.392 287.045 217.131 283.374C217.853 279.788 218.015 276.102 218.015 271.564C218.015 267.055 217.895 263.346 217.179 259.81C216.433 256.128 215.135 253.065 213.391 249.643C211.081 244.896 206.581 238.041 202.918 234.031L199.773 230.425L200.404 217.581L200.406 217.552L200.407 217.522C201.17 199.465 202.336 193.552 208.543 174.157L324.432 9.25015ZM324.432 9.25015L324.443 9.24896M324.432 9.25015L324.443 9.24896M324.443 9.24896C338.542 7.68237 363.601 8.67276 379.567 11.3107L379.587 11.314L379.607 11.3174C406.735 15.9319 435.432 27.6099 460.2 44.0717C469.416 50.1232 480.704 59.9322 490.987 70.1983C501.274 80.4689 511.081 91.7213 517.129 100.861C533.767 125.757 547.136 157.412 550.972 181.14M324.443 9.24896L550.972 181.14M284.233 87.3076L284.237 87.3059C344.842 57.1284 416.207 75.0448 459.654 132.405C463.948 138.155 469.245 147.267 474.016 156.889C478.79 166.52 482.718 176.018 484.514 182.467C487.78 194.674 490.035 214.267 489.428 224.948L489.426 224.987L489.424 225.026C489.324 227.13 489.235 228.502 489.111 229.527C488.992 230.513 488.874 230.869 488.836 230.97C488.827 230.996 488.827 231.297 486.571 233.553L486.519 233.605L486.468 233.658C459.774 261.294 467.542 304.719 502.239 321.361L502.264 321.373L502.29 321.385C508.298 324.218 515.808 325.628 522.914 325.907C530.026 326.186 537.674 325.37 543.989 322.98L544.001 322.976C573.838 311.638 586.773 275.568 573.015 247.576C576.957 247.551 581.895 247.581 587.922 247.663M284.233 87.3076L552.569 190.852L551.398 183.73M284.233 87.3076C259.97 99.3759 239.312 117.348 226.357 137.023M284.233 87.3076L226.357 137.023M587.922 247.663C587.926 247.663 587.929 247.663 587.933 247.663L588.048 239.164L587.92 247.663C587.921 247.663 587.921 247.663 587.922 247.663ZM587.922 247.663C601.356 247.865 608.149 248.033 612.036 248.421C613.92 248.61 614.602 248.808 614.793 248.875C614.813 248.882 614.826 248.887 614.832 248.89M614.832 248.89C614.83 248.888 614.829 248.887 614.828 248.887L614.83 248.888L614.837 248.892C614.84 248.893 614.838 248.892 614.832 248.89ZM614.832 248.89C614.853 248.902 614.943 248.958 615.171 249.131L615.229 249.175L615.287 249.218C615.287 249.218 615.324 249.245 615.395 249.309C615.47 249.376 615.566 249.468 615.679 249.587C615.909 249.828 616.156 250.124 616.386 250.441C616.565 250.687 616.705 250.906 616.805 251.082M616.805 251.082C616.793 250.909 616.782 250.768 616.772 250.657C616.767 250.608 616.763 250.567 616.76 250.533M616.805 251.082C616.836 251.135 616.863 251.185 616.886 251.229C616.899 251.254 616.91 251.275 616.919 251.293L616.928 251.331L617.002 251.566C616.974 251.478 616.949 251.392 616.927 251.31C616.977 251.413 616.949 251.378 616.901 251.211C616.89 251.17 616.88 251.13 616.871 251.091C616.813 250.85 616.778 250.652 616.76 250.533M616.805 251.082C616.823 251.333 616.843 251.653 616.863 252.047C616.932 253.368 617 255.261 617.063 257.701C617.191 262.565 617.299 269.391 617.382 277.699C617.548 294.303 617.615 316.699 617.548 340.874C617.481 365.1 617.548 387.434 617.698 403.908C617.773 412.14 617.87 418.935 617.982 423.78C618.037 426.195 618.098 428.173 618.164 429.62C618.197 430.334 618.234 430.99 618.278 431.533C618.3 431.797 618.33 432.119 618.375 432.447L618.377 432.464C618.396 432.616 618.509 433.505 618.86 434.468L618.906 434.595L618.956 434.72C620.485 438.543 623.046 442.277 625.742 445.278C628.355 448.186 631.838 451.233 635.662 452.855L635.68 452.863L635.699 452.871C639.834 454.602 644.598 455.33 648.915 455.33C653.128 455.33 657.957 454.635 661.935 452.589L661.967 452.573L661.999 452.556C666.055 450.427 669.835 446.825 672.708 443.315C675.587 439.799 678.345 435.411 679.651 431.09L679.658 431.068L679.664 431.045C680.087 429.62 680.25 427.872 680.35 426.643C680.473 425.125 680.575 423.191 680.663 420.869C680.838 416.21 680.964 409.679 681.048 401.164C681.215 384.117 681.215 358.867 681.081 324.198V324.196L680.681 224.863L680.673 222.906L679.811 221.149L676.077 213.549L676.072 213.539C670.496 202.228 658.906 191.492 647.076 187.088M616.76 250.533C616.748 250.457 616.744 250.413 616.744 250.409C616.745 250.405 616.75 250.443 616.76 250.533ZM647.076 187.088C647.101 187.097 647.126 187.107 647.151 187.117L644.049 195.029L646.997 187.058C647.023 187.068 647.05 187.078 647.076 187.088ZM647.076 187.088C642.695 185.375 639.226 184.543 631.435 184.142C624.042 183.761 612.062 183.73 590.448 183.73H551.398M551.398 183.73L550.972 181.14M551.398 183.73L550.972 181.14M568.204 239.143C568.633 239.961 569.222 240.989 569.894 242.079C569.874 242.049 569.855 242.018 569.835 241.988L568.204 239.143ZM568.204 239.143C568.115 239.145 568.026 239.148 567.938 239.15L568.204 239.143ZM226.357 137.023C216.753 151.751 213.76 157.868 208.544 174.154L226.357 137.023Z" fill="white" stroke="white" stroke-width="17"/>
<path d="M466.965 235.976L466.96 235.982L466.955 235.987C466.787 236.177 466.583 236.426 466.344 236.717C465.047 238.298 462.7 241.156 459.337 242.987C455.351 245.158 450.285 246.001 443.441 246.507C431.079 247.421 408.193 247.414 363.51 247.4C357.788 247.399 351.709 247.397 345.248 247.397C296.24 247.397 270.11 247.364 255.601 247.028C241.582 246.703 236.976 246.148 232.509 244.092C208.294 233.064 208.294 198.063 232.508 187.036C236.973 184.98 241.541 184.424 255.551 184.099C270.043 183.763 296.173 183.73 345.248 183.73C395.515 183.73 421.625 183.763 435.76 184.116C449.48 184.459 453.465 185.048 457.905 187.322C467.174 192.01 473.32 199.953 475.025 209.246C476.727 218.526 473.826 228.171 466.965 235.976Z" fill="white" stroke="white" stroke-width="17"/>
<path d="M443.786 554.357C437.609 547.305 431.086 539.925 429.061 537.763C388.714 494.486 350.896 452.807 315.208 412.592C298.517 393.764 281.758 375.135 268.714 360.822C262.193 353.667 256.588 347.575 252.376 343.07C248.394 338.809 245.194 335.458 243.826 334.293L243.808 334.277L243.79 334.262C238.983 330.214 233.55 327.521 227.536 326.721C221.53 325.922 215.611 327.098 209.964 329.707C202.06 333.321 196.226 339.055 192.806 346.795L192.77 346.878L192.735 346.961C192.236 348.159 192.036 349.351 191.945 349.925C191.824 350.685 191.73 351.544 191.65 352.458C191.488 354.297 191.35 356.787 191.225 360.015C190.975 366.494 190.765 376.362 190.582 390.822C190.215 419.768 189.948 467.407 189.681 543.801L189.027 729.949L187.47 731.455L187.401 731.523L187.333 731.591C181.578 737.42 171.51 734.985 169.176 726.508L169.165 726.468L169.16 726.448C169.16 726.448 169.125 726.306 169.067 725.968C169.003 725.59 168.93 725.086 168.854 724.45C168.702 723.177 168.556 721.548 168.429 719.66C168.175 715.888 168.014 711.312 168.014 706.897C168.014 697.464 167.58 690.162 165.809 684.232C163.862 677.709 160.464 673.323 155.837 669.368L155.807 669.343L155.778 669.319C139.793 655.906 117.338 661.088 107.617 679.293L107.584 679.353L107.553 679.414C103.972 686.387 103.674 691.652 103.284 708.025L443.786 554.357ZM443.786 554.357C443.828 550.826 443.866 546.882 443.898 542.567C444.048 522.542 444.081 494.643 443.948 463.2L443.948 463.192L443.948 463.184L443.681 351.451L443.675 348.916L445.058 346.792L448.792 341.059L448.828 341.002L448.866 340.947C454.409 332.721 464.877 326.591 474.681 326.399L474.764 326.397H474.848C480.121 326.397 485.5 328.479 489.852 331.034C494.315 333.654 498.693 337.354 501.784 341.717L501.828 341.779L501.871 341.842L505.871 347.709L507.343 349.867L507.348 352.481L507.748 559.947V559.949C507.881 636.215 507.881 688.607 507.714 722.589C507.631 739.574 507.506 751.997 507.334 760.517C507.248 764.771 507.149 768.102 507.035 770.563C506.934 772.739 506.801 774.909 506.508 776.338L506.501 776.372L506.494 776.406C502.538 794.924 485.066 805.614 466.675 801.61C461.842 800.602 457.946 798.933 453.199 794.926C448.99 791.374 443.899 785.797 436.347 777.194C429.806 769.853 412.923 750.977 398.578 735.302L398.564 735.288L398.551 735.273C384.349 719.612 370.005 703.675 366.558 699.815C364.907 698.03 361.494 694.264 357.308 689.645C352.872 684.751 347.568 678.899 342.572 673.43L342.555 673.411L342.537 673.392C337.365 667.66 331.556 661.25 326.521 655.694C322.011 650.718 318.122 646.426 315.863 643.916L315.846 643.897L315.828 643.877C308.414 635.537 289.762 615.088 272.868 596.677C266.476 589.711 260.347 583.048 255.19 577.461C255.181 578.929 255.173 580.463 255.164 582.058C255.081 597.96 255.014 619.912 254.948 644.109C254.948 644.113 254.948 644.117 254.948 644.12L246.448 644.097M443.786 554.357L244.848 739.697C245.914 734.097 246.448 706.764 246.448 644.097M246.448 644.097C246.537 611.896 246.625 583.649 246.753 568.348L246.448 644.097ZM127.493 779.03L127.504 779.041C132.251 783.788 135.724 787.121 139.476 789.719C143.362 792.409 147.236 794.101 152.394 796.137L152.433 796.152L152.474 796.168C175.475 804.98 200.906 802.49 221.151 789.044L127.493 779.03ZM127.493 779.03L127.482 779.018M127.493 779.03L127.482 779.018M127.482 779.018C117.951 769.417 111.381 760.401 107.538 748.931M127.482 779.018L107.538 748.931M107.538 748.931C103.774 737.696 102.877 724.827 103.284 708.028L107.538 748.931ZM262.677 453.409L262.639 453.369L262.602 453.329C260.295 450.83 257.451 447.731 254.681 444.688V451.43V477.328L263.801 487.859C269.873 494.856 282.225 508.669 291.278 518.654C300.348 528.657 320.755 551.198 336.497 568.675L336.508 568.687L336.518 568.699C352.243 586.289 374.602 611.043 386.415 623.785L386.431 623.802L386.447 623.82C398.205 636.647 417.294 657.738 428.779 670.559L428.795 670.577L428.812 670.596C434.251 676.738 439.652 682.75 444.031 687.542C444.156 681.066 444.05 672.673 443.692 665.593L443.691 665.582L442.909 649.719L422.331 627.324C409.792 613.718 383.921 585.58 364.717 564.642L364.715 564.641C348.24 546.667 328.676 525.406 317.729 513.51C316.02 511.653 314.522 510.024 313.277 508.672C304.051 498.777 290.826 484.35 283.852 476.571C276.932 468.852 267.394 458.389 262.677 453.409Z" fill="white" stroke="white" stroke-width="17"/>
<path d="M8.61472 693.581L8.61472 693.577C8.48141 606.064 8.4479 556.679 8.68167 528.576C8.79835 514.549 8.98226 505.691 9.2625 500.002C9.51929 494.789 9.8708 491.088 10.9122 488.385C14.3441 479.373 20.4887 473.45 29.5749 470.23C33.5012 468.799 37.3554 467.82 41.5169 467.951C45.7287 468.085 49.4656 469.33 53.1896 471.037L53.2058 471.044L53.222 471.051C61.0948 474.7 66.0738 480.863 69.7121 489.246L69.7198 489.264L69.7274 489.282C70.304 490.627 70.4881 492.025 70.5505 492.5L70.5565 492.545C70.6581 493.31 70.7384 494.202 70.8068 495.168C70.9447 497.117 71.0629 499.796 71.1671 503.249C71.3763 510.179 71.5393 520.58 71.6644 535.258C71.9147 564.632 72.0147 611.366 72.0147 682.23V864.871L73.494 866.635L74.4128 867.73H343.248C451.719 867.73 520.092 867.63 561.677 867.364C582.479 867.23 596.525 867.056 605.519 866.833C610.028 866.721 613.181 866.599 615.248 866.471C615.42 866.46 615.582 866.449 615.733 866.439C616.124 864.51 616.572 860.652 616.889 852.995C617.65 834.62 617.618 798.46 617.555 725.49L617.548 716.907C617.538 708.145 617.527 699.741 617.518 691.679C617.402 596.552 617.344 549.077 617.699 524.889C617.889 511.954 618.195 505.126 618.784 501.166C619.098 499.058 619.57 497.14 620.493 495.329C620.944 494.442 621.409 493.77 621.724 493.334C621.927 493.052 622.013 492.938 622.066 492.868C622.115 492.802 622.135 492.775 622.197 492.684C628.231 483.719 636.993 478.397 647.781 478.397C662.752 478.397 675.631 487.44 679.685 501.754C680.031 502.954 680.132 504.193 680.17 504.611C680.247 505.448 680.311 506.477 680.368 507.653C680.482 510.021 680.581 513.296 680.667 517.455C680.839 525.789 680.965 537.909 681.048 553.919C681.215 585.953 681.215 633.713 681.081 698.248L680.681 887.582L680.677 889.552L679.807 891.319L675.421 900.224C675.419 900.228 675.417 900.232 675.414 900.237C669.219 912.93 658.193 923.477 645.466 928.31L645.426 928.325L645.387 928.34L637.787 931.14L636.368 931.662L634.856 931.664L343.523 931.93L343.519 931.93L52.1853 932.064L50.2035 932.065L48.4256 931.189L39.4923 926.789L39.4886 926.787C27.9843 921.114 20.0899 913.084 13.6215 900.91L10.0355 894.269L9.01907 892.387L9.01472 890.248L8.61472 693.581Z" fill="white" stroke="white" stroke-width="17"/>
<path d="M547.417 663.653L547.458 663.635L547.5 663.618C558.989 658.693 572.625 661.036 581.785 669.816C590.098 677.721 594.193 687.848 593.046 698.215C591.909 708.496 585.768 717.702 576.215 724.289C570.874 727.989 564.071 729.055 558.114 728.68C552.066 728.3 545.532 726.359 540.394 722.482L540.352 722.45L540.311 722.418C534.524 717.938 530.555 711.341 528.53 704.663C526.516 698.02 526.138 690.319 528.775 683.462C530.317 679.408 533.644 675.166 536.596 672.034C539.533 668.917 543.551 665.359 547.417 663.653Z" fill="white" stroke="white" stroke-width="17"/>
</svg>
