<svg width="656" height="907" viewBox="0 0 656 907" fill="none" xmlns="http://www.w3.org/2000/svg">
<path d="M165.544 293.204C173.886 288.787 181.372 280.715 185.609 271.752C187.09 268.53 187.895 266.35 188.367 264.007C188.846 261.624 189.015 258.907 189.015 254.564C189.015 250.114 188.876 247.453 188.418 245.192C187.974 243.002 187.197 241.023 185.664 238.022L185.647 237.989L185.631 237.955C183.76 234.089 179.812 228.117 177.006 225.067L176.974 225.033L176.944 224.998L171.477 218.731L170.55 217.668L170.619 216.258L171.418 200.016C171.418 200.012 171.418 200.009 171.418 200.005C172.234 180.72 173.636 173.741 180.115 153.497L180.115 153.496C185.683 136.111 189.157 129.029 199.316 113.452L199.32 113.445L199.324 113.439C213.567 91.802 235.93 72.4751 261.889 59.5632C328.036 26.6271 405.563 46.5405 452.238 108.184L452.245 108.193L452.252 108.202C457.165 114.776 462.84 124.62 467.767 134.559C472.691 144.492 477.001 154.785 479.087 162.294L479.091 162.309L479.095 162.324C482.641 175.552 485.098 196.448 484.41 208.612C484.216 212.674 484.019 215.651 483.076 218.173C482.072 220.859 480.338 222.755 478.078 225.017C457.096 246.765 463.123 280.438 490.419 293.537C494.533 295.473 500.329 296.679 506.385 296.916C512.445 297.154 518.378 296.408 522.743 294.757C547.265 285.435 557.327 253.851 542.783 231.542L542.76 231.507L542.739 231.473C541.836 230.015 540.984 228.526 540.343 227.264C540.026 226.637 539.734 226.016 539.513 225.454C539.358 225.058 539.015 224.169 539.015 223.23C539.015 221.818 539.781 220.871 540.316 220.403C540.821 219.963 541.347 219.728 541.66 219.606C542.309 219.353 543.039 219.211 543.676 219.115C545.016 218.913 546.898 218.783 549.256 218.699C554.017 218.529 561.227 218.531 571.095 218.664L571.101 218.664C584.298 218.863 591.712 219.029 596.23 219.481C598.513 219.709 600.267 220.028 601.753 220.547C603.31 221.091 604.406 221.799 605.41 222.56C606.771 223.564 608.072 224.979 609.097 226.391C610.094 227.764 611.069 229.462 611.497 231.13C611.638 231.651 611.692 232.241 611.722 232.563C611.767 233.06 611.809 233.689 611.847 234.423C611.924 235.897 611.994 237.91 612.059 240.387C612.189 245.346 612.298 252.246 612.381 260.579C612.548 277.247 612.615 299.696 612.548 323.907C612.481 348.096 612.548 370.382 612.698 386.798C612.773 395.009 612.868 401.74 612.978 406.504C613.033 408.889 613.091 410.761 613.151 412.072C613.182 412.731 613.211 413.22 613.238 413.548C613.24 413.572 613.242 413.594 613.243 413.615C614.152 415.724 615.756 418.13 617.668 420.258C619.718 422.539 621.81 424.153 623.341 424.805C625.685 425.784 628.801 426.33 631.915 426.33C635.065 426.33 637.776 425.773 639.433 424.925C641.526 423.823 644.105 421.545 646.423 418.713C648.735 415.889 650.466 412.907 651.157 410.642C651.157 410.638 651.19 410.501 651.237 410.155C651.286 409.794 651.338 409.306 651.389 408.671C651.492 407.404 651.587 405.665 651.671 403.417C651.84 398.927 651.965 392.528 652.048 384.046C652.215 367.089 652.215 341.909 652.081 307.244L651.685 208.717L648.309 201.845C644.022 193.148 634.693 184.59 625.834 181.313L625.802 181.301L625.77 181.289C622.789 180.12 620.639 179.477 613.818 179.126C606.815 178.765 595.23 178.73 573.448 178.73H527.181H524.21L523.728 175.798L522.128 166.065L522.126 166.056C518.624 144.393 506.061 114.327 490.138 90.5088L490.134 90.5016L490.129 90.4945C484.713 82.306 475.529 71.6947 465.509 61.6906C455.487 51.6859 444.845 42.5044 436.594 37.0898L436.586 37.0841L436.577 37.0783C413.085 21.4611 385.944 10.4606 360.601 6.14862C345.529 3.65976 321.599 2.75052 308.771 4.1752C303.107 4.81946 291.541 7.04852 283.243 9.15598L283.236 9.15759C232.69 21.8926 194.111 48.4749 166.756 89.1786C148.645 116.346 140.537 136.307 133.152 172.823L132.625 175.723L132.107 178.573L129.21 178.597L80.1432 178.997L80.1295 178.997C55.9362 179.197 43.8117 179.298 36.9392 179.74C33.522 179.959 31.6091 180.254 30.251 180.62C28.9513 180.971 28.0362 181.416 26.5336 182.2L26.497 182.219L26.4599 182.237C18.7495 186.031 11.5503 193.088 7.34932 201.119L7.346 201.126L7.34266 201.132L4.01104 207.438L3.61463 302.84C3.48121 349.938 3.41503 374.01 3.69715 386.954C3.83878 393.452 4.06643 396.976 4.38408 399.149C4.66936 401.1 5.00533 401.85 5.49181 402.825C8.42399 408.318 12.4742 411.723 18.062 413.176L18.0726 413.179L18.0831 413.182C21.9688 414.218 27.0402 413.336 31.7559 410.798C36.4054 408.296 40.1335 404.488 41.7233 400.392C41.7309 400.352 41.7428 400.286 41.7575 400.189C41.7983 399.918 41.8446 399.524 41.8933 398.987C41.9903 397.917 42.0849 396.416 42.1746 394.464C42.3535 390.566 42.507 385 42.6318 377.753C42.8813 363.267 43.0146 342.157 43.0146 314.43C43.0146 285.829 43.1146 264.737 43.3485 250.556C43.4653 243.471 43.616 238.077 43.8066 234.322C43.9016 232.45 44.0088 230.937 44.1329 229.806C44.1945 229.245 44.266 228.722 44.3541 228.272C44.4138 227.967 44.5526 227.272 44.9076 226.623C45.8758 224.824 47.1801 223.237 49.209 222.001C51.1516 220.818 53.5465 220.09 56.4841 219.595C62.2808 218.62 71.3315 218.397 85.848 218.397C93.3975 218.397 100.26 218.464 105.247 218.581C107.734 218.64 109.787 218.712 111.234 218.797C111.946 218.838 112.576 218.887 113.059 218.947C113.278 218.975 113.594 219.019 113.907 219.099C114.036 219.132 114.375 219.222 114.753 219.417C114.936 219.512 115.317 219.726 115.694 220.118C116.085 220.524 116.681 221.354 116.681 222.564C116.681 223.309 116.435 223.931 116.385 224.058C116.382 224.065 116.38 224.07 116.379 224.073C116.282 224.324 116.167 224.57 116.061 224.784C115.845 225.222 115.56 225.739 115.241 226.288C114.599 227.395 113.727 228.787 112.765 230.232C108.011 237.425 106.015 244.589 106.015 255.097C106.015 270.968 114.205 284.48 128.454 292.289C132.4 294.429 134.298 295.326 136.548 295.808C138.914 296.315 141.816 296.397 147.848 296.397C153.497 296.397 156.544 296.288 158.877 295.855C161.048 295.454 162.704 294.752 165.505 293.224L165.524 293.214L165.544 293.204Z" fill="#FFD600" stroke="black" stroke-width="7"/>
<path d="M220.515 180.941L220.505 180.946L220.496 180.95C205.632 187.706 205.632 209.421 220.496 216.177L220.505 216.181L220.515 216.186C222.343 217.03 224.355 217.695 238.879 218.031C253.211 218.363 279.157 218.397 328.248 218.397C334.586 218.397 340.549 218.399 346.16 218.4C391.293 218.412 413.671 218.418 425.557 217.54C432.291 217.042 435.064 216.284 436.599 215.448C437.737 214.829 438.274 214.193 439.443 212.808C439.852 212.324 440.338 211.749 440.954 211.051C445.657 205.7 447.192 199.696 446.222 194.412C445.254 189.136 441.718 184.174 435.471 181.022L435.46 181.016L435.449 181.01L435.404 180.987C433.775 180.15 432.436 179.462 418.46 179.112C404.516 178.764 378.609 178.73 328.248 178.73C279.09 178.73 253.144 178.764 238.829 179.096C224.325 179.432 222.344 180.097 220.515 180.941Z" fill="#FFD600" stroke="black" stroke-width="7"/>
<path d="M197.984 323.607L197.976 323.61L197.968 323.614C192.628 326.052 189.03 329.66 186.855 334.483C186.843 334.537 186.823 334.639 186.797 334.8C186.738 335.177 186.672 335.73 186.604 336.506C186.468 338.054 186.338 340.316 186.216 343.478C185.972 349.792 185.764 359.529 185.581 373.975C185.214 402.856 184.948 450.44 184.681 526.842L184.014 716.576L184.009 718.052L182.948 719.079L178.843 723.052C166.342 735.669 145.301 729.71 140.611 712.707C140.094 710.884 139.717 707.35 139.456 703.465C139.184 699.418 139.014 694.573 139.014 689.897C139.014 680.511 138.535 674.764 137.311 670.665C136.161 666.814 134.316 664.292 131.053 661.502C121.266 653.301 107.568 656.055 101.215 667.921C99.1242 671.999 98.6835 674.374 98.2802 691.314L98.2801 691.315C97.8828 707.738 98.8312 718.91 101.917 728.118C104.969 737.229 110.215 744.716 118.994 753.56C123.813 758.379 126.57 760.958 129.307 762.853C131.986 764.708 134.764 765.987 139.783 767.968C159.296 775.438 180.629 773.261 197.511 762.048L197.513 762.047C210.186 753.64 221.256 737.125 224.415 722.015C224.626 720.885 224.852 718.376 225.052 714.048C225.249 709.768 225.415 703.906 225.548 696.236C225.814 680.901 225.948 658.426 225.948 627.097L225.948 627.087C226.015 602.888 226.081 580.917 226.165 564.995C226.206 557.036 226.252 550.58 226.304 546.112C226.33 543.881 226.358 542.131 226.388 540.933C226.403 540.339 226.419 539.853 226.437 539.503C226.446 539.339 226.458 539.149 226.476 538.976C226.483 538.908 226.502 538.731 226.546 538.526L226.547 538.525C226.563 538.449 226.621 538.176 226.76 537.854C226.823 537.707 226.992 537.335 227.328 536.946C227.642 536.582 228.525 535.73 229.981 535.73C230.404 535.756 231.058 535.9 231.291 535.984C231.435 536.046 231.67 536.163 231.763 536.216C231.942 536.322 232.074 536.421 232.128 536.462C232.194 536.513 232.252 536.561 232.298 536.6C232.336 536.633 232.366 536.659 232.385 536.676C232.481 536.763 232.575 536.855 232.649 536.927C232.806 537.083 233.011 537.292 233.248 537.538C233.728 538.037 234.412 538.759 235.267 539.669C236.979 541.494 239.416 544.113 242.368 547.303C248.275 553.683 256.266 562.362 264.71 571.564C281.584 589.954 300.297 610.468 307.79 618.897C310.06 621.419 313.918 625.676 318.399 630.621C323.417 636.158 329.217 642.557 334.44 648.345C339.539 653.927 344.859 659.797 349.276 664.671C353.439 669.265 356.8 672.974 358.416 674.719L358.438 674.742L358.459 674.766C361.783 678.489 376.174 694.479 390.437 710.208C404.851 725.957 421.792 744.9 428.328 752.235L428.336 752.245L428.345 752.255C436.054 761.037 440.544 765.89 443.939 768.756C447.107 771.43 449.17 772.25 452.159 772.87L452.178 772.874L452.197 772.878C464.376 775.546 475.237 768.662 477.755 756.916C477.823 756.572 477.937 755.406 478.048 753.008C478.155 750.7 478.251 747.489 478.336 743.274C478.506 734.85 478.631 722.501 478.715 705.53C478.881 671.593 478.881 619.237 478.748 542.97C478.748 542.97 478.748 542.97 478.748 542.97L478.35 336.58L474.975 331.629C473.047 328.917 470.058 326.309 466.776 324.382C463.454 322.431 460.225 321.407 457.881 321.397C452.332 321.522 445.383 325.381 441.832 330.63C441.827 330.638 441.822 330.645 441.817 330.653L438.684 335.466L438.948 446.149C439.081 477.625 439.048 505.572 438.898 525.656C438.823 535.696 438.718 543.783 438.591 549.369C438.527 552.156 438.457 554.348 438.38 555.855C438.342 556.599 438.3 557.231 438.25 557.702C438.227 557.919 438.192 558.21 438.131 558.492C438.107 558.605 438.039 558.91 437.889 559.255C437.821 559.413 437.646 559.793 437.302 560.187C436.978 560.559 436.093 561.397 434.648 561.397C434.018 561.397 433.535 561.231 433.317 561.147C433.06 561.048 432.853 560.938 432.716 560.859C432.443 560.702 432.204 560.527 432.028 560.392C431.665 560.113 431.264 559.76 430.861 559.386C430.04 558.624 428.982 557.564 427.773 556.304C425.343 553.772 422.173 550.298 418.817 546.472L418.814 546.468C412.261 538.979 405.243 531.036 403.294 528.957L403.288 528.95C362.867 485.595 324.981 443.84 289.23 403.553L289.229 403.552C272.572 384.763 255.85 366.175 242.844 351.904C236.341 344.768 230.773 338.718 226.61 334.264C222.367 329.725 219.769 327.048 219.052 326.434C215.669 323.587 212.309 322.063 208.953 321.616C205.593 321.169 201.963 321.766 197.984 323.607ZM231.826 402.938L238.744 410.92C238.746 410.923 238.749 410.926 238.752 410.929C242.585 415.291 249.609 422.978 254.405 428.173C259.244 433.283 268.856 443.83 275.787 451.561C282.702 459.273 295.886 473.655 305.074 483.51L305.082 483.519L305.09 483.527C306.34 484.885 307.847 486.524 309.568 488.393C320.515 500.29 340.081 521.554 356.561 539.531C375.759 560.463 401.624 588.594 414.155 602.192L414.158 602.195L436.825 626.862L437.681 627.794L437.744 629.058L438.677 647.987C439.214 658.59 439.221 672.363 438.669 678.986C438.669 678.987 438.669 678.987 438.669 678.988L437.736 690.448L437.136 697.823L431.815 692.68L427.866 688.863C426.507 687.643 423.026 683.94 418.666 679.177C414.152 674.245 408.509 667.967 402.834 661.558C391.377 648.769 372.329 627.723 360.607 614.936C348.718 602.111 326.311 577.303 310.578 559.703C294.848 542.24 274.453 519.713 265.388 509.715C256.316 499.708 243.896 485.82 237.738 478.724L237.735 478.721L226.535 465.788L225.681 464.802V463.497V434.43V405.23V395.848L231.826 402.938Z" fill="#FFD600" stroke="black" stroke-width="7"/>
<path d="M16.6492 464.518L16.6311 464.524L16.6129 464.531C10.7678 466.594 7.28162 469.984 5.11978 475.674L5.11497 475.686L5.11006 475.699C4.88445 476.279 4.52412 477.986 4.24797 483.592C3.98101 489.011 3.79791 497.652 3.68125 511.676C3.4481 539.704 3.48136 589.016 3.6147 676.556C3.6147 676.557 3.6147 676.558 3.6147 676.558L4.01291 872.342L7.19438 878.234L7.20028 878.245L7.20611 878.256C12.6354 888.483 18.7948 894.585 27.7945 899.024C27.7947 899.024 27.7949 899.024 27.7951 899.024C27.7954 899.024 27.7958 899.024 27.7961 899.025L35.9958 903.063L326.512 902.93L326.513 902.93L617.222 902.664L624.206 900.092C624.211 900.09 624.216 900.088 624.221 900.086C633.843 896.427 642.66 888.163 647.636 877.962L647.642 877.95L651.683 869.745L652.081 681.223C652.215 616.69 652.215 568.968 652.048 536.982C651.965 520.986 651.84 508.941 651.67 500.703C651.584 496.58 651.488 493.434 651.382 491.233C651.328 490.129 651.274 489.294 651.22 488.706C651.186 488.335 651.159 488.146 651.15 488.082C651.147 488.056 651.146 488.05 651.15 488.06L651.146 488.047C648.67 479.267 640.8 473.397 630.781 473.397C624.494 473.397 619.255 476.288 615.152 482.385L615.149 482.388C614.887 482.777 614.566 483.201 614.454 483.357C614.306 483.562 614.239 483.671 614.185 483.777C614.084 483.974 613.87 484.473 613.654 485.93C613.205 488.95 612.89 494.932 612.698 508.065C612.345 532.154 612.402 579.54 612.518 674.839C612.528 682.847 612.538 691.193 612.548 699.893V699.894L612.556 709.126C612.619 781.493 612.65 817.855 611.878 836.492C611.482 846.061 610.869 851.45 609.722 854.685C609.094 856.456 608.24 857.798 607.032 858.834C606.121 859.615 605.056 860.143 604.385 860.475C604.282 860.526 604.187 860.573 604.104 860.615L604.092 860.621L604.08 860.627C603.57 860.882 603.061 860.995 602.815 861.046C602.494 861.113 602.144 861.165 601.786 861.21C601.068 861.299 600.135 861.376 598.993 861.447C596.698 861.59 593.366 861.716 588.816 861.829C579.705 862.055 565.565 862.23 544.754 862.364C503.124 862.63 434.713 862.73 326.248 862.73H53.448H51.8155L50.7664 861.479L47.2997 857.346L43.833 853.213L43.0147 852.237V850.964V665.23C43.0147 594.362 42.9147 547.677 42.6648 518.36C42.5399 503.698 42.3776 493.404 42.1726 486.611C42.0699 483.209 41.9575 480.721 41.8367 479.015C41.7761 478.158 41.7162 477.541 41.6609 477.125C41.6417 476.98 41.6256 476.881 41.6146 476.819C38.8061 470.429 35.608 466.995 31.182 464.942C28.2019 463.577 26.119 463.008 24.1373 462.945C22.1396 462.882 19.9203 463.323 16.6492 464.518Z" fill="#FFD600" stroke="black" stroke-width="7"/>
<path d="M522.988 670.736L522.984 670.746L522.98 670.756C521.529 674.519 521.562 679.391 523.014 684.182C524.46 688.953 527.196 693.242 530.64 695.916C533.512 698.077 537.637 699.438 541.868 699.704C546.143 699.973 549.974 699.095 552.386 697.421L552.395 697.415C559.659 692.41 563.435 686.084 564.119 679.895C564.8 673.743 562.488 667.186 556.504 661.501L556.497 661.495L556.491 661.488C550.856 656.079 542.366 654.596 535.245 657.639C533.635 658.356 530.969 660.463 528.328 663.264C525.688 666.066 523.673 668.926 522.988 670.736Z" fill="#FFD600" stroke="black" stroke-width="7"/>
</svg>
