<svg width="522" height="492" viewBox="0 0 522 492" fill="none" xmlns="http://www.w3.org/2000/svg">
<path d="M103.752 431.727C90.2327 431.727 77.9064 429.114 66.7729 423.888C55.6395 418.662 46.7782 410.937 40.189 400.712C33.7134 390.374 30.4756 377.707 30.4756 362.71V287.56H89.7783V359.132C89.7783 364.358 90.8008 368.561 92.8457 371.742C95.0042 374.923 98.4124 376.514 103.07 376.514C112.045 376.514 116.533 371.004 116.533 359.984V129.078H177.028V354.02C177.028 369.924 173.904 383.728 167.656 395.429C161.407 407.017 152.773 415.992 141.753 422.354C130.734 428.602 118.066 431.727 103.752 431.727ZM200.204 429V129.078H261.893L289.499 272.734V129.078H347.438V429H288.817L258.825 279.039V429H200.204ZM374.022 429V129.078H493.991V187.529H434.348V235.244H490.924V293.013H434.348V429H374.022Z" fill="white"/>
<path d="M40.189 400.712L35.9516 403.366L35.9687 403.393L35.9861 403.42L40.189 400.712ZM30.4756 287.56V282.56H25.4756V287.56H30.4756ZM89.7783 287.56H94.7783V282.56H89.7783V287.56ZM92.8457 371.742L88.6398 374.446L88.6734 374.498L88.7083 374.55L92.8457 371.742ZM116.533 129.078V124.078H111.533V129.078H116.533ZM177.028 129.078H182.028V124.078H177.028V129.078ZM167.656 395.429L172.057 397.802L172.062 397.793L172.066 397.784L167.656 395.429ZM141.753 422.354L144.22 426.703L144.237 426.694L144.253 426.684L141.753 422.354ZM103.752 426.727C90.8934 426.727 79.3025 424.246 68.8975 419.362L64.6484 428.414C76.5103 433.982 89.5721 436.727 103.752 436.727V426.727ZM68.8975 419.362C58.6037 414.53 50.4666 407.43 44.3918 398.003L35.9861 403.42C43.0897 414.443 52.6753 422.794 64.6484 428.414L68.8975 419.362ZM44.4263 398.058C38.5523 388.68 35.4756 376.983 35.4756 362.71H25.4756C25.4756 378.43 28.8745 392.068 35.9516 403.366L44.4263 398.058ZM35.4756 362.71V287.56H25.4756V362.71H35.4756ZM30.4756 292.56H89.7783V282.56H30.4756V292.56ZM84.7783 287.56V359.132H94.7783V287.56H84.7783ZM84.7783 359.132C84.7783 364.963 85.9138 370.206 88.6398 374.446L97.0516 369.038C95.6877 366.917 94.7783 363.752 94.7783 359.132H84.7783ZM88.7083 374.55C92.0017 379.403 97.1556 381.514 103.07 381.514V371.514C99.6693 371.514 98.0067 370.443 96.9831 368.935L88.7083 374.55ZM103.07 381.514C108.631 381.514 113.609 379.757 117.044 375.539C120.319 371.517 121.533 366.044 121.533 359.984H111.533C111.533 364.944 110.502 367.736 109.29 369.224C108.238 370.516 106.485 371.514 103.07 371.514V381.514ZM121.533 359.984V129.078H111.533V359.984H121.533ZM116.533 134.078H177.028V124.078H116.533V134.078ZM172.028 129.078V354.02H182.028V129.078H172.028ZM172.028 354.02C172.028 369.266 169.037 382.228 163.245 393.074L172.066 397.784C178.772 385.227 182.028 370.583 182.028 354.02H172.028ZM163.255 393.056C157.43 403.858 149.442 412.142 139.254 418.024L144.253 426.684C156.105 419.842 165.384 410.176 172.057 397.802L163.255 393.056ZM139.287 418.005C129.113 423.773 117.316 426.727 103.752 426.727V436.727C118.817 436.727 132.354 433.431 144.22 426.703L139.287 418.005ZM200.204 429H195.204V434H200.204V429ZM200.204 129.078V124.078H195.204V129.078H200.204ZM261.893 129.078L266.803 128.135L266.023 124.078H261.893V129.078ZM289.499 272.734L284.589 273.677L294.499 272.734H289.499ZM289.499 129.078V124.078H284.499V129.078H289.499ZM347.438 129.078H352.438V124.078H347.438V129.078ZM347.438 429V434H352.438V429H347.438ZM288.817 429L283.914 429.981L284.718 434H288.817V429ZM258.825 279.039L263.728 278.058L253.825 279.039H258.825ZM258.825 429V434H263.825V429H258.825ZM205.204 429V129.078H195.204V429H205.204ZM200.204 134.078H261.893V124.078H200.204V134.078ZM256.982 130.022L284.589 273.677L294.409 271.79L266.803 128.135L256.982 130.022ZM294.499 272.734V129.078H284.499V272.734H294.499ZM289.499 134.078H347.438V124.078H289.499V134.078ZM342.438 129.078V429H352.438V129.078H342.438ZM347.438 424H288.817V434H347.438V424ZM293.72 428.019L263.728 278.058L253.922 280.02L283.914 429.981L293.72 428.019ZM253.825 279.039V429H263.825V279.039H253.825ZM258.825 424H200.204V434H258.825V424ZM374.022 429H369.022V434H374.022V429ZM374.022 129.078V124.078H369.022V129.078H374.022ZM493.991 129.078H498.991V124.078H493.991V129.078ZM493.991 187.529V192.529H498.991V187.529H493.991ZM434.348 187.529V182.529H429.348V187.529H434.348ZM434.348 235.244H429.348V240.244H434.348V235.244ZM490.924 235.244H495.924V230.244H490.924V235.244ZM490.924 293.013V298.013H495.924V293.013H490.924ZM434.348 293.013V288.013H429.348V293.013H434.348ZM434.348 429V434H439.348V429H434.348ZM379.022 429V129.078H369.022V429H379.022ZM374.022 134.078H493.991V124.078H374.022V134.078ZM488.991 129.078V187.529H498.991V129.078H488.991ZM493.991 182.529H434.348V192.529H493.991V182.529ZM429.348 187.529V235.244H439.348V187.529H429.348ZM434.348 240.244H490.924V230.244H434.348V240.244ZM485.924 235.244V293.013H495.924V235.244H485.924ZM490.924 288.013H434.348V298.013H490.924V288.013ZM429.348 293.013V429H439.348V293.013H429.348ZM434.348 424H374.022V434H434.348V424Z" fill="black"/>
<path d="M79.752 412.727C66.2327 412.727 53.9064 410.114 42.7729 404.888C31.6395 399.662 22.7782 391.937 16.189 381.712C9.71338 371.374 6.47559 358.707 6.47559 343.71V268.56H65.7783V340.132C65.7783 345.358 66.8008 349.561 68.8457 352.742C71.0042 355.923 74.4124 357.514 79.0703 357.514C88.0452 357.514 92.5327 352.004 92.5327 340.984V110.078H153.028V335.02C153.028 350.924 149.904 364.728 143.656 376.429C137.407 388.017 128.773 396.992 117.753 403.354C106.734 409.602 94.0664 412.727 79.752 412.727ZM176.204 410V110.078H237.893L265.499 253.734V110.078H323.438V410H264.817L234.825 260.039V410H176.204ZM350.022 410V110.078H469.991V168.529H410.348V216.244H466.924V274.013H410.348V410H350.022Z" fill="#FFD600"/>
<path d="M16.189 381.712L12.3753 384.101L12.3907 384.125L12.4064 384.15L16.189 381.712ZM6.47559 268.56V264.06H1.97559V268.56H6.47559ZM65.7783 268.56H70.2783V264.06H65.7783V268.56ZM68.8457 352.742L65.0604 355.176L65.0907 355.223L65.1221 355.269L68.8457 352.742ZM92.5327 110.078V105.578H88.0327V110.078H92.5327ZM153.028 110.078H157.528V105.578H153.028V110.078ZM143.656 376.429L147.617 378.565L147.621 378.557L147.625 378.549L143.656 376.429ZM117.753 403.354L119.973 407.269L119.988 407.26L120.003 407.251L117.753 403.354ZM79.752 408.227C66.8274 408.227 55.1629 405.732 44.685 400.814L40.8609 408.961C52.6499 414.495 65.6381 417.227 79.752 417.227V408.227ZM44.685 400.814C34.3073 395.943 26.0978 388.781 19.9715 379.274L12.4064 384.15C19.4585 395.093 28.9717 403.381 40.8609 408.961L44.685 400.814ZM20.0026 379.323C14.0684 369.849 10.9756 358.056 10.9756 343.71H1.97559C1.97559 359.358 5.35838 372.898 12.3753 384.101L20.0026 379.323ZM10.9756 343.71V268.56H1.97559V343.71H10.9756ZM6.47559 273.06H65.7783V264.06H6.47559V273.06ZM61.2783 268.56V340.132H70.2783V268.56H61.2783ZM61.2783 340.132C61.2783 345.903 62.4025 351.041 65.0604 355.176L72.631 350.309C71.199 348.081 70.2783 344.813 70.2783 340.132H61.2783ZM65.1221 355.269C68.302 359.955 73.2813 362.014 79.0703 362.014V353.014C75.5436 353.014 73.7065 351.891 72.5693 350.215L65.1221 355.269ZM79.0703 362.014C84.5234 362.014 89.3401 360.295 92.6563 356.223C95.8286 352.328 97.0327 346.989 97.0327 340.984H88.0327C88.0327 345.999 86.9931 348.925 85.6779 350.539C84.5067 351.978 82.5922 353.014 79.0703 353.014V362.014ZM97.0327 340.984V110.078H88.0327V340.984H97.0327ZM92.5327 114.578H153.028V105.578H92.5327V114.578ZM148.528 110.078V335.02H157.528V110.078H148.528ZM148.528 335.02C148.528 350.331 145.523 363.378 139.686 374.31L147.625 378.549C154.285 366.077 157.528 351.518 157.528 335.02H148.528ZM139.695 374.293C133.828 385.174 125.775 393.527 115.504 399.457L120.003 407.251C131.772 400.457 140.987 390.861 147.617 378.565L139.695 374.293ZM115.534 399.439C105.275 405.256 93.3913 408.227 79.752 408.227V417.227C94.7415 417.227 108.192 413.948 119.973 407.269L115.534 399.439ZM176.204 410H171.704V414.5H176.204V410ZM176.204 110.078V105.578H171.704V110.078H176.204ZM237.893 110.078L242.312 109.229L241.61 105.578H237.893V110.078ZM265.499 253.734L261.08 254.583L269.999 253.734H265.499ZM265.499 110.078V105.578H260.999V110.078H265.499ZM323.438 110.078H327.938V105.578H323.438V110.078ZM323.438 410V414.5H327.938V410H323.438ZM264.817 410L260.405 410.883L261.128 414.5H264.817V410ZM234.825 260.039L239.238 259.157L230.325 260.039H234.825ZM234.825 410V414.5H239.325V410H234.825ZM180.704 410V110.078H171.704V410H180.704ZM176.204 114.578H237.893V105.578H176.204V114.578ZM233.473 110.927L261.08 254.583L269.918 252.885L242.312 109.229L233.473 110.927ZM269.999 253.734V110.078H260.999V253.734H269.999ZM265.499 114.578H323.438V105.578H265.499V114.578ZM318.938 110.078V410H327.938V110.078H318.938ZM323.438 405.5H264.817V414.5H323.438V405.5ZM269.23 409.117L239.238 259.157L230.413 260.922L260.405 410.883L269.23 409.117ZM230.325 260.039V410H239.325V260.039H230.325ZM234.825 405.5H176.204V414.5H234.825V405.5ZM350.022 410H345.522V414.5H350.022V410ZM350.022 110.078V105.578H345.522V110.078H350.022ZM469.991 110.078H474.491V105.578H469.991V110.078ZM469.991 168.529V173.029H474.491V168.529H469.991ZM410.348 168.529V164.029H405.848V168.529H410.348ZM410.348 216.244H405.848V220.744H410.348V216.244ZM466.924 216.244H471.424V211.744H466.924V216.244ZM466.924 274.013V278.513H471.424V274.013H466.924ZM410.348 274.013V269.513H405.848V274.013H410.348ZM410.348 410V414.5H414.848V410H410.348ZM354.522 410V110.078H345.522V410H354.522ZM350.022 114.578H469.991V105.578H350.022V114.578ZM465.491 110.078V168.529H474.491V110.078H465.491ZM469.991 164.029H410.348V173.029H469.991V164.029ZM405.848 168.529V216.244H414.848V168.529H405.848ZM410.348 220.744H466.924V211.744H410.348V220.744ZM462.424 216.244V274.013H471.424V216.244H462.424ZM466.924 269.513H410.348V278.513H466.924V269.513ZM405.848 274.013V410H414.848V274.013H405.848ZM410.348 405.5H350.022V414.5H410.348V405.5Z" fill="black"/>
</svg>
