<svg width="2567" height="498" viewBox="0 0 2567 498" fill="none" xmlns="http://www.w3.org/2000/svg">
<path d="M110.752 437.727C97.2327 437.727 84.9064 435.114 73.7729 429.888C62.6395 424.662 53.7782 416.937 47.189 406.712C40.7134 396.374 37.4756 383.707 37.4756 368.71V293.56H96.7783V365.132C96.7783 370.358 97.8008 374.561 99.8457 377.742C102.004 380.923 105.412 382.514 110.07 382.514C119.045 382.514 123.533 377.004 123.533 365.984V135.078H184.028V360.02C184.028 375.924 180.904 389.728 174.656 401.429C168.407 413.017 159.773 421.992 148.753 428.354C137.734 434.602 125.066 437.727 110.752 437.727ZM276.561 437.727C251.568 437.727 233.163 430.74 221.348 416.766C209.533 402.679 203.625 382.002 203.625 354.737V135.078H261.906V352.351C261.906 357.35 262.19 362.178 262.758 366.836C263.326 371.38 264.632 375.129 266.677 378.083C268.722 381.037 272.017 382.514 276.561 382.514C281.219 382.514 284.57 381.094 286.615 378.253C288.66 375.3 289.91 371.494 290.364 366.836C290.932 362.178 291.216 357.35 291.216 352.351V135.078H349.497V354.737C349.497 382.002 343.589 402.679 331.774 416.766C319.959 430.74 301.555 437.727 276.561 437.727ZM443.733 437.727C416.354 437.727 396.587 430.91 384.431 417.277C372.388 403.645 366.367 381.946 366.367 352.181V322.87H425.67V360.36C425.67 367.29 426.692 372.743 428.737 376.72C430.896 380.582 434.588 382.514 439.814 382.514C445.267 382.514 449.016 380.923 451.061 377.742C453.22 374.561 454.299 369.335 454.299 362.064C454.299 352.862 453.39 345.194 451.572 339.059C449.755 332.811 446.574 326.903 442.029 321.336C437.599 315.656 431.407 309.067 423.455 301.569L396.53 276.007C376.421 257.035 366.367 235.336 366.367 210.911C366.367 185.349 372.275 165.866 384.09 152.46C396.019 139.054 413.23 132.352 435.724 132.352C463.217 132.352 482.701 139.679 494.175 154.334C505.763 168.99 511.557 191.257 511.557 221.135H450.55V200.516C450.55 196.426 449.357 193.245 446.971 190.973C444.699 188.701 441.575 187.564 437.599 187.564C432.827 187.564 429.305 188.928 427.033 191.654C424.875 194.267 423.795 197.675 423.795 201.879C423.795 206.082 424.931 210.627 427.204 215.512C429.476 220.397 433.963 226.02 440.666 232.382L475.259 265.612C482.189 272.201 488.551 279.188 494.345 286.573C500.139 293.844 504.797 302.364 508.319 312.134C511.841 321.791 513.602 333.606 513.602 347.58C513.602 375.754 508.376 397.851 497.924 413.869C487.586 429.774 469.522 437.727 443.733 437.727ZM559.442 435V192.677H523.826V135.078H655.042V192.677H619.426V435H559.442ZM753.539 435V135.078H815.228L842.834 278.734V135.078H900.773V435H842.152L812.16 285.039V435H753.539ZM927.357 435V135.078H1047.33V193.018H988.364V251.468H1044.94V307.874H988.364V376.549H1051.25V435H927.357ZM1094.7 435L1062.49 135.078H1121.11L1137.64 324.404L1154.51 135.078H1210.41L1226.43 324.404L1242.45 135.078H1301.75L1269.03 435H1197.12L1182.12 290.663L1167.81 435H1094.7ZM1401.44 435V135.078H1521.41V193.529H1461.76V241.244H1518.34V299.013H1461.76V435H1401.44ZM1538.11 435V135.078H1596.05V435H1538.11ZM1619.9 435V135.078H1681.59L1709.2 278.734V135.078H1767.14V435H1708.52L1678.53 285.039V435H1619.9ZM1793.72 435V135.078H1876.2C1897.79 135.078 1914.03 141.099 1924.94 153.142C1935.84 165.07 1941.3 182.566 1941.3 205.628V346.046C1941.3 374.448 1936.3 396.374 1926.3 411.824C1916.42 427.275 1899.04 435 1874.16 435H1793.72ZM1854.05 382.002H1864.44C1875.46 382.002 1880.97 376.663 1880.97 365.984V211.251C1880.97 201.254 1879.61 194.835 1876.88 191.995C1874.27 189.041 1868.87 187.564 1860.69 187.564H1854.05V382.002ZM1963.11 435V135.078H2021.05V435H1963.11ZM2044.91 435V135.078H2106.6L2134.2 278.734V135.078H2192.14V435H2133.52L2103.53 285.039V435H2044.91ZM2280.58 437.727C2237.75 437.727 2216.34 407.053 2216.34 345.705V216.364C2216.34 160.356 2240.88 132.352 2289.96 132.352C2310.18 132.352 2325.69 136.441 2336.48 144.621C2347.27 152.687 2354.71 164.502 2358.8 180.066C2362.89 195.631 2364.94 214.603 2364.94 236.983H2306.32V210.399C2306.32 203.924 2305.41 198.528 2303.59 194.21C2301.89 189.78 2298.25 187.564 2292.68 187.564C2285.75 187.564 2281.15 189.893 2278.88 194.551C2276.72 199.209 2275.64 204.321 2275.64 209.888V355.248C2275.64 363.314 2276.67 369.903 2278.71 375.016C2280.87 380.014 2285.02 382.514 2291.15 382.514C2297.51 382.514 2301.72 380.014 2303.76 375.016C2305.92 369.903 2307 363.201 2307 354.907V312.134H2290.98V260.33H2364.26V435H2340.23L2330 409.779C2319.55 428.411 2303.08 437.727 2280.58 437.727ZM2459.34 437.727C2431.97 437.727 2412.2 430.91 2400.04 417.277C2388 403.645 2381.98 381.946 2381.98 352.181V322.87H2441.28V360.36C2441.28 367.29 2442.3 372.743 2444.35 376.72C2446.51 380.582 2450.2 382.514 2455.43 382.514C2460.88 382.514 2464.63 380.923 2466.67 377.742C2468.83 374.561 2469.91 369.335 2469.91 362.064C2469.91 352.862 2469 345.194 2467.18 339.059C2465.37 332.811 2462.18 326.903 2457.64 321.336C2453.21 315.656 2447.02 309.067 2439.07 301.569L2412.14 276.007C2392.03 257.035 2381.98 235.336 2381.98 210.911C2381.98 185.349 2387.89 165.866 2399.7 152.46C2411.63 139.054 2428.84 132.352 2451.34 132.352C2478.83 132.352 2498.31 139.679 2509.79 154.334C2521.37 168.99 2527.17 191.257 2527.17 221.135H2466.16V200.516C2466.16 196.426 2464.97 193.245 2462.58 190.973C2460.31 188.701 2457.19 187.564 2453.21 187.564C2448.44 187.564 2444.92 188.928 2442.64 191.654C2440.49 194.267 2439.41 197.675 2439.41 201.879C2439.41 206.082 2440.54 210.627 2442.81 215.512C2445.09 220.397 2449.57 226.02 2456.28 232.382L2490.87 265.612C2497.8 272.201 2504.16 279.188 2509.96 286.573C2515.75 293.844 2520.41 302.364 2523.93 312.134C2527.45 321.791 2529.21 333.606 2529.21 347.58C2529.21 375.754 2523.99 397.851 2513.54 413.869C2503.2 429.774 2485.13 437.727 2459.34 437.727Z" fill="white"/>
<path d="M47.189 406.712L42.9516 409.366L42.9687 409.393L42.9861 409.42L47.189 406.712ZM37.4756 293.56V288.56H32.4756V293.56H37.4756ZM96.7783 293.56H101.778V288.56H96.7783V293.56ZM99.8457 377.742L95.6398 380.446L95.6734 380.498L95.7083 380.55L99.8457 377.742ZM123.533 135.078V130.078H118.533V135.078H123.533ZM184.028 135.078H189.028V130.078H184.028V135.078ZM174.656 401.429L179.057 403.802L179.062 403.793L179.066 403.784L174.656 401.429ZM148.753 428.354L151.22 432.703L151.237 432.694L151.253 432.684L148.753 428.354ZM110.752 432.727C97.8934 432.727 86.3025 430.246 75.8975 425.362L71.6484 434.414C83.5103 439.982 96.5721 442.727 110.752 442.727V432.727ZM75.8975 425.362C65.6037 420.53 57.4666 413.43 51.3918 404.003L42.9861 409.42C50.0897 420.443 59.6753 428.794 71.6484 434.414L75.8975 425.362ZM51.4263 404.058C45.5523 394.68 42.4756 382.983 42.4756 368.71H32.4756C32.4756 384.43 35.8745 398.068 42.9516 409.366L51.4263 404.058ZM42.4756 368.71V293.56H32.4756V368.71H42.4756ZM37.4756 298.56H96.7783V288.56H37.4756V298.56ZM91.7783 293.56V365.132H101.778V293.56H91.7783ZM91.7783 365.132C91.7783 370.963 92.9138 376.206 95.6398 380.446L104.052 375.038C102.688 372.917 101.778 369.752 101.778 365.132H91.7783ZM95.7083 380.55C99.0017 385.403 104.156 387.514 110.07 387.514V377.514C106.669 377.514 105.007 376.443 103.983 374.935L95.7083 380.55ZM110.07 387.514C115.631 387.514 120.609 385.757 124.044 381.539C127.319 377.517 128.533 372.044 128.533 365.984H118.533C118.533 370.944 117.502 373.736 116.29 375.224C115.238 376.516 113.485 377.514 110.07 377.514V387.514ZM128.533 365.984V135.078H118.533V365.984H128.533ZM123.533 140.078H184.028V130.078H123.533V140.078ZM179.028 135.078V360.02H189.028V135.078H179.028ZM179.028 360.02C179.028 375.266 176.037 388.228 170.245 399.074L179.066 403.784C185.772 391.227 189.028 376.583 189.028 360.02H179.028ZM170.255 399.056C164.43 409.858 156.442 418.142 146.254 424.024L151.253 432.684C163.105 425.842 172.384 416.176 179.057 403.802L170.255 399.056ZM146.287 424.005C136.113 429.773 124.316 432.727 110.752 432.727V442.727C125.817 442.727 139.354 439.431 151.22 432.703L146.287 424.005ZM221.348 416.766L217.517 419.979L217.524 419.987L217.53 419.994L221.348 416.766ZM203.625 135.078V130.078H198.625V135.078H203.625ZM261.906 135.078H266.906V130.078H261.906V135.078ZM262.758 366.836L257.795 367.441L257.795 367.449L257.796 367.456L262.758 366.836ZM286.615 378.253L290.673 381.175L290.7 381.137L290.726 381.099L286.615 378.253ZM290.364 366.836L285.401 366.231L285.394 366.29L285.388 366.35L290.364 366.836ZM291.216 135.078V130.078H286.216V135.078H291.216ZM349.497 135.078H354.497V130.078H349.497V135.078ZM331.774 416.766L335.592 419.994L335.598 419.987L335.605 419.979L331.774 416.766ZM276.561 432.727C252.472 432.727 235.718 426.017 225.166 413.538L217.53 419.994C230.609 435.462 250.663 442.727 276.561 442.727V432.727ZM225.179 413.553C214.41 400.713 208.625 381.377 208.625 354.737H198.625C198.625 382.628 204.656 404.645 217.517 419.979L225.179 413.553ZM208.625 354.737V135.078H198.625V354.737H208.625ZM203.625 140.078H261.906V130.078H203.625V140.078ZM256.906 135.078V352.351H266.906V135.078H256.906ZM256.906 352.351C256.906 357.539 257.201 362.57 257.795 367.441L267.721 366.231C267.179 361.786 266.906 357.16 266.906 352.351H256.906ZM257.796 367.456C258.438 372.586 259.954 377.156 262.566 380.929L270.788 375.237C269.311 373.103 268.214 370.174 267.719 366.216L257.796 367.456ZM262.566 380.929C265.792 385.588 270.863 387.514 276.561 387.514V377.514C273.17 377.514 271.652 376.485 270.788 375.237L262.566 380.929ZM276.561 387.514C282.245 387.514 287.393 385.73 290.673 381.175L282.558 375.332C281.747 376.457 280.193 377.514 276.561 377.514V387.514ZM290.726 381.099C293.381 377.265 294.828 372.578 295.341 367.321L285.388 366.35C284.992 370.41 283.939 373.334 282.504 375.407L290.726 381.099ZM295.327 367.441C295.922 362.57 296.216 357.539 296.216 352.351H286.216C286.216 357.16 285.943 361.786 285.401 366.231L295.327 367.441ZM296.216 352.351V135.078H286.216V352.351H296.216ZM291.216 140.078H349.497V130.078H291.216V140.078ZM344.497 135.078V354.737H354.497V135.078H344.497ZM344.497 354.737C344.497 381.377 338.712 400.713 327.943 413.553L335.605 419.979C348.466 404.645 354.497 382.628 354.497 354.737H344.497ZM327.956 413.538C317.404 426.017 300.65 432.727 276.561 432.727V442.727C302.459 442.727 322.514 435.462 335.592 419.994L327.956 413.538ZM384.431 417.277L380.683 420.588L380.691 420.596L380.699 420.605L384.431 417.277ZM366.367 322.87V317.87H361.367V322.87H366.367ZM425.67 322.87H430.67V317.87H425.67V322.87ZM428.737 376.72L424.291 379.006L424.33 379.083L424.373 379.159L428.737 376.72ZM451.061 377.742L446.924 374.935L446.889 374.986L446.855 375.038L451.061 377.742ZM451.572 339.059L446.771 340.456L446.775 340.468L446.778 340.48L451.572 339.059ZM442.029 321.336L438.087 324.412L438.121 324.455L438.156 324.498L442.029 321.336ZM423.455 301.569L420.012 305.195L420.018 305.201L420.025 305.207L423.455 301.569ZM396.53 276.007L399.972 272.381L399.967 272.376L399.961 272.371L396.53 276.007ZM384.09 152.46L380.355 149.136L380.347 149.145L380.339 149.154L384.09 152.46ZM494.175 154.334L490.238 157.417L490.245 157.426L490.253 157.436L494.175 154.334ZM511.557 221.135V226.135H516.557V221.135H511.557ZM450.55 221.135H445.55V226.135H450.55V221.135ZM446.971 190.973L443.436 194.508L443.479 194.551L443.523 194.593L446.971 190.973ZM427.033 191.654L423.192 188.453L423.185 188.462L423.178 188.47L427.033 191.654ZM440.666 232.382L444.13 228.776L444.119 228.766L444.108 228.756L440.666 232.382ZM475.259 265.612L471.796 269.218L471.805 269.227L471.814 269.236L475.259 265.612ZM494.345 286.573L490.412 289.659L490.423 289.674L490.435 289.689L494.345 286.573ZM508.319 312.134L503.615 313.83L503.618 313.839L503.621 313.847L508.319 312.134ZM497.924 413.869L493.736 411.137L493.732 411.144L497.924 413.869ZM443.733 432.727C417.064 432.727 398.98 426.081 388.163 413.95L380.699 420.605C394.194 435.739 415.645 442.727 443.733 442.727V432.727ZM388.178 413.967C377.32 401.676 371.367 381.453 371.367 352.181H361.367C361.367 382.438 367.456 405.614 380.683 420.588L388.178 413.967ZM371.367 352.181V322.87H361.367V352.181H371.367ZM366.367 327.87H425.67V317.87H366.367V327.87ZM420.67 322.87V360.36H430.67V322.87H420.67ZM420.67 360.36C420.67 367.69 421.736 374.039 424.291 379.006L433.184 374.433C431.649 371.448 430.67 366.891 430.67 360.36H420.67ZM424.373 379.159C427.591 384.917 433.168 387.514 439.814 387.514V377.514C436.008 377.514 434.201 376.247 433.102 374.281L424.373 379.159ZM439.814 387.514C446.154 387.514 451.935 385.63 455.267 380.446L446.855 375.038C446.098 376.217 444.38 377.514 439.814 377.514V387.514ZM455.198 380.55C458.232 376.08 459.299 369.578 459.299 362.064H449.299C449.299 369.093 448.208 373.043 446.924 374.935L455.198 380.55ZM459.299 362.064C459.299 352.573 458.366 344.388 456.366 337.639L446.778 340.48C448.414 346 449.299 353.152 449.299 362.064H459.299ZM456.373 337.662C454.349 330.705 450.827 324.207 445.903 318.175L438.156 324.498C442.32 329.599 445.16 334.916 446.771 340.456L456.373 337.662ZM445.972 318.261C441.327 312.306 434.938 305.524 426.885 297.931L420.025 305.207C427.876 312.61 433.87 319.006 438.087 324.412L445.972 318.261ZM426.897 297.943L399.972 272.381L393.087 279.633L420.012 305.195L426.897 297.943ZM399.961 272.371C380.709 254.206 371.367 233.772 371.367 210.911H361.367C361.367 236.9 372.134 259.864 393.098 279.644L399.961 272.371ZM371.367 210.911C371.367 186.049 377.117 167.933 387.841 155.766L380.339 149.154C367.432 163.798 361.367 184.65 361.367 210.911H371.367ZM387.825 155.784C398.574 143.704 414.268 137.352 435.724 137.352V127.352C412.192 127.352 393.463 134.405 380.355 149.136L387.825 155.784ZM435.724 137.352C462.439 137.352 480.097 144.465 490.238 157.417L498.112 151.252C485.304 134.893 463.995 127.352 435.724 127.352V137.352ZM490.253 157.436C500.833 170.817 506.557 191.754 506.557 221.135H516.557C516.557 190.76 510.692 167.163 498.097 151.233L490.253 157.436ZM511.557 216.135H450.55V226.135H511.557V216.135ZM455.55 221.135V200.516H445.55V221.135H455.55ZM455.55 200.516C455.55 195.41 454.025 190.786 450.419 187.352L443.523 194.593C444.689 195.704 445.55 197.442 445.55 200.516H455.55ZM450.507 187.437C447.085 184.015 442.567 182.564 437.599 182.564V192.564C440.582 192.564 442.313 193.386 443.436 194.508L450.507 187.437ZM437.599 182.564C431.886 182.564 426.714 184.227 423.192 188.453L430.874 194.855C431.897 193.628 433.769 192.564 437.599 192.564V182.564ZM423.178 188.47C420.115 192.178 418.795 196.801 418.795 201.879H428.795C428.795 198.55 429.634 196.356 430.888 194.839L423.178 188.47ZM418.795 201.879C418.795 206.986 420.174 212.254 422.67 217.62L431.737 213.403C429.689 208.999 428.795 205.179 428.795 201.879H418.795ZM422.67 217.62C425.332 223.343 430.344 229.479 437.224 236.009L444.108 228.756C437.582 222.562 433.62 217.451 431.737 213.403L422.67 217.62ZM437.202 235.988L471.796 269.218L478.723 262.006L444.13 228.776L437.202 235.988ZM471.814 269.236C478.572 275.661 484.77 282.469 490.412 289.659L498.279 283.486C492.333 275.908 485.807 268.742 478.705 261.989L471.814 269.236ZM490.435 289.689C495.851 296.486 500.257 304.514 503.615 313.83L513.023 310.439C509.337 300.214 504.427 291.201 498.256 283.457L490.435 289.689ZM503.621 313.847C506.885 322.797 508.602 333.994 508.602 347.58H518.602C518.602 333.218 516.796 320.785 513.016 310.421L503.621 313.847ZM508.602 347.58C508.602 375.217 503.463 396.23 493.736 411.137L502.111 416.601C513.289 399.471 518.602 376.292 518.602 347.58H508.602ZM493.732 411.144C484.63 425.146 468.502 432.727 443.733 432.727V442.727C470.542 442.727 490.541 434.402 502.116 416.594L493.732 411.144ZM559.442 435H554.442V440H559.442V435ZM559.442 192.677H564.442V187.677H559.442V192.677ZM523.826 192.677H518.826V197.677H523.826V192.677ZM523.826 135.078V130.078H518.826V135.078H523.826ZM655.042 135.078H660.042V130.078H655.042V135.078ZM655.042 192.677V197.677H660.042V192.677H655.042ZM619.426 192.677V187.677H614.426V192.677H619.426ZM619.426 435V440H624.426V435H619.426ZM564.442 435V192.677H554.442V435H564.442ZM559.442 187.677H523.826V197.677H559.442V187.677ZM528.826 192.677V135.078H518.826V192.677H528.826ZM523.826 140.078H655.042V130.078H523.826V140.078ZM650.042 135.078V192.677H660.042V135.078H650.042ZM655.042 187.677H619.426V197.677H655.042V187.677ZM614.426 192.677V435H624.426V192.677H614.426ZM619.426 430H559.442V440H619.426V430ZM753.539 435H748.539V440H753.539V435ZM753.539 135.078V130.078H748.539V135.078H753.539ZM815.228 135.078L820.138 134.135L819.358 130.078H815.228V135.078ZM842.834 278.734L837.924 279.677L847.834 278.734H842.834ZM842.834 135.078V130.078H837.834V135.078H842.834ZM900.773 135.078H905.773V130.078H900.773V135.078ZM900.773 435V440H905.773V435H900.773ZM842.152 435L837.249 435.981L838.053 440H842.152V435ZM812.16 285.039L817.063 284.058L807.16 285.039H812.16ZM812.16 435V440H817.16V435H812.16ZM758.539 435V135.078H748.539V435H758.539ZM753.539 140.078H815.228V130.078H753.539V140.078ZM810.317 136.022L837.924 279.677L847.744 277.79L820.138 134.135L810.317 136.022ZM847.834 278.734V135.078H837.834V278.734H847.834ZM842.834 140.078H900.773V130.078H842.834V140.078ZM895.773 135.078V435H905.773V135.078H895.773ZM900.773 430H842.152V440H900.773V430ZM847.055 434.019L817.063 284.058L807.257 286.02L837.249 435.981L847.055 434.019ZM807.16 285.039V435H817.16V285.039H807.16ZM812.16 430H753.539V440H812.16V430ZM927.357 435H922.357V440H927.357V435ZM927.357 135.078V130.078H922.357V135.078H927.357ZM1047.33 135.078H1052.33V130.078H1047.33V135.078ZM1047.33 193.018V198.018H1052.33V193.018H1047.33ZM988.364 193.018V188.018H983.364V193.018H988.364ZM988.364 251.468H983.364V256.468H988.364V251.468ZM1044.94 251.468H1049.94V246.468H1044.94V251.468ZM1044.94 307.874V312.874H1049.94V307.874H1044.94ZM988.364 307.874V302.874H983.364V307.874H988.364ZM988.364 376.549H983.364V381.549H988.364V376.549ZM1051.25 376.549H1056.25V371.549H1051.25V376.549ZM1051.25 435V440H1056.25V435H1051.25ZM932.357 435V135.078H922.357V435H932.357ZM927.357 140.078H1047.33V130.078H927.357V140.078ZM1042.33 135.078V193.018H1052.33V135.078H1042.33ZM1047.33 188.018H988.364V198.018H1047.33V188.018ZM983.364 193.018V251.468H993.364V193.018H983.364ZM988.364 256.468H1044.94V246.468H988.364V256.468ZM1039.94 251.468V307.874H1049.94V251.468H1039.94ZM1044.94 302.874H988.364V312.874H1044.94V302.874ZM983.364 307.874V376.549H993.364V307.874H983.364ZM988.364 381.549H1051.25V371.549H988.364V381.549ZM1046.25 376.549V435H1056.25V376.549H1046.25ZM1051.25 430H927.357V440H1051.25V430ZM1094.7 435L1089.73 435.534L1090.21 440H1094.7V435ZM1062.49 135.078V130.078H1056.93L1057.52 135.612L1062.49 135.078ZM1121.11 135.078L1126.09 134.643L1125.7 130.078H1121.11V135.078ZM1137.64 324.404L1132.66 324.839L1142.62 324.848L1137.64 324.404ZM1154.51 135.078V130.078H1149.94L1149.53 134.634L1154.51 135.078ZM1210.41 135.078L1215.39 134.657L1215 130.078H1210.41V135.078ZM1226.43 324.404L1221.45 324.825H1231.41L1226.43 324.404ZM1242.45 135.078V130.078H1237.85L1237.46 134.657L1242.45 135.078ZM1301.75 135.078L1306.72 135.62L1307.32 130.078H1301.75V135.078ZM1269.03 435V440H1273.51L1274 435.542L1269.03 435ZM1197.12 435L1192.14 435.517L1192.61 440H1197.12V435ZM1182.12 290.663L1187.09 290.146L1177.15 290.169L1182.12 290.663ZM1167.81 435V440H1172.33L1172.78 435.493L1167.81 435ZM1099.67 434.466L1067.46 134.544L1057.52 135.612L1089.73 435.534L1099.67 434.466ZM1062.49 140.078H1121.11V130.078H1062.49V140.078ZM1116.13 135.513L1132.66 324.839L1142.62 323.969L1126.09 134.643L1116.13 135.513ZM1142.62 324.848L1159.49 135.522L1149.53 134.634L1132.66 323.96L1142.62 324.848ZM1154.51 140.078H1210.41V130.078H1154.51V140.078ZM1205.43 135.5L1221.45 324.825L1231.41 323.982L1215.39 134.657L1205.43 135.5ZM1231.41 324.825L1247.43 135.5L1237.46 134.657L1221.45 323.982L1231.41 324.825ZM1242.45 140.078H1301.75V130.078H1242.45V140.078ZM1296.78 134.536L1264.06 434.458L1274 435.542L1306.72 135.62L1296.78 134.536ZM1269.03 430H1197.12V440H1269.03V430ZM1202.09 434.483L1187.09 290.146L1177.15 291.179L1192.14 435.517L1202.09 434.483ZM1177.15 290.169L1162.83 434.507L1172.78 435.493L1187.1 291.156L1177.15 290.169ZM1167.81 430H1094.7V440H1167.81V430ZM1401.44 435H1396.44V440H1401.44V435ZM1401.44 135.078V130.078H1396.44V135.078H1401.44ZM1521.41 135.078H1526.41V130.078H1521.41V135.078ZM1521.41 193.529V198.529H1526.41V193.529H1521.41ZM1461.76 193.529V188.529H1456.76V193.529H1461.76ZM1461.76 241.244H1456.76V246.244H1461.76V241.244ZM1518.34 241.244H1523.34V236.244H1518.34V241.244ZM1518.34 299.013V304.013H1523.34V299.013H1518.34ZM1461.76 299.013V294.013H1456.76V299.013H1461.76ZM1461.76 435V440H1466.76V435H1461.76ZM1406.44 435V135.078H1396.44V435H1406.44ZM1401.44 140.078H1521.41V130.078H1401.44V140.078ZM1516.41 135.078V193.529H1526.41V135.078H1516.41ZM1521.41 188.529H1461.76V198.529H1521.41V188.529ZM1456.76 193.529V241.244H1466.76V193.529H1456.76ZM1461.76 246.244H1518.34V236.244H1461.76V246.244ZM1513.34 241.244V299.013H1523.34V241.244H1513.34ZM1518.34 294.013H1461.76V304.013H1518.34V294.013ZM1456.76 299.013V435H1466.76V299.013H1456.76ZM1461.76 430H1401.44V440H1461.76V430ZM1538.11 435H1533.11V440H1538.11V435ZM1538.11 135.078V130.078H1533.11V135.078H1538.11ZM1596.05 135.078H1601.05V130.078H1596.05V135.078ZM1596.05 435V440H1601.05V435H1596.05ZM1543.11 435V135.078H1533.11V435H1543.11ZM1538.11 140.078H1596.05V130.078H1538.11V140.078ZM1591.05 135.078V435H1601.05V135.078H1591.05ZM1596.05 430H1538.11V440H1596.05V430ZM1619.9 435H1614.9V440H1619.9V435ZM1619.9 135.078V130.078H1614.9V135.078H1619.9ZM1681.59 135.078L1686.5 134.135L1685.72 130.078H1681.59V135.078ZM1709.2 278.734L1704.29 279.677L1714.2 278.734H1709.2ZM1709.2 135.078V130.078H1704.2V135.078H1709.2ZM1767.14 135.078H1772.14V130.078H1767.14V135.078ZM1767.14 435V440H1772.14V435H1767.14ZM1708.52 435L1703.61 435.981L1704.42 440H1708.52V435ZM1678.53 285.039L1683.43 284.058L1673.53 285.039H1678.53ZM1678.53 435V440H1683.53V435H1678.53ZM1624.9 435V135.078H1614.9V435H1624.9ZM1619.9 140.078H1681.59V130.078H1619.9V140.078ZM1676.68 136.022L1704.29 279.677L1714.11 277.79L1686.5 134.135L1676.68 136.022ZM1714.2 278.734V135.078H1704.2V278.734H1714.2ZM1709.2 140.078H1767.14V130.078H1709.2V140.078ZM1762.14 135.078V435H1772.14V135.078H1762.14ZM1767.14 430H1708.52V440H1767.14V430ZM1713.42 434.019L1683.43 284.058L1673.62 286.02L1703.61 435.981L1713.42 434.019ZM1673.53 285.039V435H1683.53V285.039H1673.53ZM1678.53 430H1619.9V440H1678.53V430ZM1793.72 435H1788.72V440H1793.72V435ZM1793.72 135.078V130.078H1788.72V135.078H1793.72ZM1924.94 153.142L1921.23 156.498L1921.24 156.507L1921.25 156.515L1924.94 153.142ZM1926.3 411.824L1922.1 409.108L1922.1 409.119L1922.09 409.13L1926.3 411.824ZM1854.05 382.002H1849.05V387.002H1854.05V382.002ZM1876.88 191.995L1873.14 195.308L1873.21 195.384L1873.28 195.458L1876.88 191.995ZM1854.05 187.564V182.564H1849.05V187.564H1854.05ZM1798.72 435V135.078H1788.72V435H1798.72ZM1793.72 140.078H1876.2V130.078H1793.72V140.078ZM1876.2 140.078C1896.86 140.078 1911.56 145.816 1921.23 156.498L1928.64 149.785C1916.51 136.382 1898.71 130.078 1876.2 130.078V140.078ZM1921.25 156.515C1931.01 167.195 1936.3 183.284 1936.3 205.628H1946.3C1946.3 181.847 1940.68 162.946 1928.63 149.768L1921.25 156.515ZM1936.3 205.628V346.046H1946.3V205.628H1936.3ZM1936.3 346.046C1936.3 373.968 1931.37 394.795 1922.1 409.108L1930.5 414.54C1941.23 397.953 1946.3 374.927 1946.3 346.046H1936.3ZM1922.09 409.13C1913.44 422.655 1898.01 430 1874.16 430V440C1900.07 440 1919.4 431.894 1930.51 414.519L1922.09 409.13ZM1874.16 430H1793.72V440H1874.16V430ZM1854.05 387.002H1864.44V377.002H1854.05V387.002ZM1864.44 387.002C1870.68 387.002 1876.29 385.492 1880.32 381.588C1884.38 377.657 1885.97 372.135 1885.97 365.984H1875.97C1875.97 370.512 1874.81 372.999 1873.36 374.407C1871.88 375.843 1869.22 377.002 1864.44 377.002V387.002ZM1885.97 365.984V211.251H1875.97V365.984H1885.97ZM1885.97 211.251C1885.97 206.065 1885.62 201.579 1884.84 197.901C1884.08 194.322 1882.8 190.936 1880.49 188.532L1873.28 195.458C1873.69 195.894 1874.46 197.138 1875.06 199.978C1875.64 202.718 1875.97 206.441 1875.97 211.251H1885.97ZM1880.63 188.682C1878.46 186.232 1875.46 184.742 1872.2 183.849C1868.92 182.953 1865.04 182.564 1860.69 182.564V192.564C1864.52 192.564 1867.44 192.915 1869.56 193.495C1871.69 194.079 1872.69 194.805 1873.14 195.308L1880.63 188.682ZM1860.69 182.564H1854.05V192.564H1860.69V182.564ZM1849.05 187.564V382.002H1859.05V187.564H1849.05ZM1963.11 435H1958.11V440H1963.11V435ZM1963.11 135.078V130.078H1958.11V135.078H1963.11ZM2021.05 135.078H2026.05V130.078H2021.05V135.078ZM2021.05 435V440H2026.05V435H2021.05ZM1968.11 435V135.078H1958.11V435H1968.11ZM1963.11 140.078H2021.05V130.078H1963.11V140.078ZM2016.05 135.078V435H2026.05V135.078H2016.05ZM2021.05 430H1963.11V440H2021.05V430ZM2044.91 435H2039.91V440H2044.91V435ZM2044.91 135.078V130.078H2039.91V135.078H2044.91ZM2106.6 135.078L2111.51 134.135L2110.73 130.078H2106.6V135.078ZM2134.2 278.734L2129.29 279.677L2139.2 278.734H2134.2ZM2134.2 135.078V130.078H2129.2V135.078H2134.2ZM2192.14 135.078H2197.14V130.078H2192.14V135.078ZM2192.14 435V440H2197.14V435H2192.14ZM2133.52 435L2128.62 435.981L2129.42 440H2133.52V435ZM2103.53 285.039L2108.43 284.058L2098.53 285.039H2103.53ZM2103.53 435V440H2108.53V435H2103.53ZM2049.91 435V135.078H2039.91V435H2049.91ZM2044.91 140.078H2106.6V130.078H2044.91V140.078ZM2101.69 136.022L2129.29 279.677L2139.11 277.79L2111.51 134.135L2101.69 136.022ZM2139.2 278.734V135.078H2129.2V278.734H2139.2ZM2134.2 140.078H2192.14V130.078H2134.2V140.078ZM2187.14 135.078V435H2197.14V135.078H2187.14ZM2192.14 430H2133.52V440H2192.14V430ZM2138.42 434.019L2108.43 284.058L2098.63 286.02L2128.62 435.981L2138.42 434.019ZM2098.53 285.039V435H2108.53V285.039H2098.53ZM2103.53 430H2044.91V440H2103.53V430ZM2336.48 144.621L2333.46 148.606L2333.47 148.616L2333.49 148.626L2336.48 144.621ZM2364.94 236.983V241.983H2369.94V236.983H2364.94ZM2306.32 236.983H2301.32V241.983H2306.32V236.983ZM2303.59 194.21L2298.92 196.005L2298.95 196.078L2298.98 196.151L2303.59 194.21ZM2278.88 194.551L2274.39 192.359L2274.36 192.404L2274.34 192.449L2278.88 194.551ZM2278.71 375.016L2274.07 376.873L2274.09 376.936L2274.12 376.998L2278.71 375.016ZM2303.76 375.016L2299.15 373.071L2299.14 373.097L2299.13 373.122L2303.76 375.016ZM2307 312.134H2312V307.134H2307V312.134ZM2290.98 312.134H2285.98V317.134H2290.98V312.134ZM2290.98 260.33V255.33H2285.98V260.33H2290.98ZM2364.26 260.33H2369.26V255.33H2364.26V260.33ZM2364.26 435V440H2369.26V435H2364.26ZM2340.23 435L2335.59 436.879L2336.86 440H2340.23V435ZM2330 409.779L2334.64 407.901L2330.73 398.264L2325.64 407.333L2330 409.779ZM2280.58 432.727C2260.53 432.727 2246.13 425.647 2236.5 411.859C2226.65 397.744 2221.34 375.951 2221.34 345.705H2211.34C2211.34 376.807 2216.74 401.024 2228.3 417.583C2240.09 434.47 2257.81 442.727 2280.58 442.727V432.727ZM2221.34 345.705V216.364H2211.34V345.705H2221.34ZM2221.34 216.364C2221.34 188.98 2227.35 169.376 2238.5 156.65C2249.55 144.05 2266.37 137.352 2289.96 137.352V127.352C2264.46 127.352 2244.48 134.656 2230.98 150.059C2217.6 165.337 2211.34 187.739 2211.34 216.364H2221.34ZM2289.96 137.352C2309.6 137.352 2323.87 141.339 2333.46 148.606L2339.5 140.636C2327.5 131.544 2310.76 127.352 2289.96 127.352V137.352ZM2333.49 148.626C2343.21 155.89 2350.11 166.646 2353.97 181.337L2363.64 178.796C2359.32 162.359 2351.34 149.484 2339.47 140.616L2333.49 148.626ZM2353.97 181.337C2357.91 196.36 2359.94 214.878 2359.94 236.983H2369.94C2369.94 214.328 2367.87 194.901 2363.64 178.796L2353.97 181.337ZM2364.94 231.983H2306.32V241.983H2364.94V231.983ZM2311.32 236.983V210.399H2301.32V236.983H2311.32ZM2311.32 210.399C2311.32 203.495 2310.35 197.388 2308.2 192.27L2298.98 196.151C2300.46 199.667 2301.32 204.352 2301.32 210.399H2311.32ZM2308.26 192.416C2307.06 189.295 2305.06 186.704 2302.19 184.956C2299.38 183.245 2296.11 182.564 2292.68 182.564V192.564C2294.83 192.564 2296.16 192.991 2296.98 193.496C2297.75 193.963 2298.42 194.695 2298.92 196.005L2308.26 192.416ZM2292.68 182.564C2284.6 182.564 2277.78 185.395 2274.39 192.359L2283.37 196.743C2284.52 194.392 2286.91 192.564 2292.68 192.564V182.564ZM2274.34 192.449C2271.85 197.82 2270.64 203.657 2270.64 209.888H2280.64C2280.64 204.985 2281.59 200.599 2283.42 196.654L2274.34 192.449ZM2270.64 209.888V355.248H2280.64V209.888H2270.64ZM2270.64 355.248C2270.64 363.681 2271.7 370.962 2274.07 376.873L2283.35 373.159C2281.63 368.844 2280.64 362.948 2280.64 355.248H2270.64ZM2274.12 376.998C2275.56 380.33 2277.78 383.067 2280.86 384.921C2283.89 386.751 2287.41 387.514 2291.15 387.514V377.514C2288.75 377.514 2287.13 377.027 2286.02 376.357C2284.95 375.712 2284.02 374.7 2283.3 373.033L2274.12 376.998ZM2291.15 387.514C2294.97 387.514 2298.55 386.765 2301.63 384.937C2304.76 383.074 2307 380.303 2308.39 376.909L2299.13 373.122C2298.48 374.727 2297.59 375.705 2296.52 376.341C2295.39 377.013 2293.7 377.514 2291.15 377.514V387.514ZM2308.37 376.96C2310.88 371.006 2312 363.569 2312 354.907H2302C2302 362.832 2300.96 368.8 2299.15 373.071L2308.37 376.96ZM2312 354.907V312.134H2302V354.907H2312ZM2307 307.134H2290.98V317.134H2307V307.134ZM2295.98 312.134V260.33H2285.98V312.134H2295.98ZM2290.98 265.33H2364.26V255.33H2290.98V265.33ZM2359.26 260.33V435H2369.26V260.33H2359.26ZM2364.26 430H2340.23V440H2364.26V430ZM2344.86 433.121L2334.64 407.901L2325.37 411.658L2335.59 436.879L2344.86 433.121ZM2325.64 407.333C2316.13 424.287 2301.39 432.727 2280.58 432.727V442.727C2304.77 442.727 2322.97 432.535 2334.36 412.226L2325.64 407.333ZM2400.04 417.277L2396.29 420.588L2396.3 420.596L2396.31 420.605L2400.04 417.277ZM2381.98 322.87V317.87H2376.98V322.87H2381.98ZM2441.28 322.87H2446.28V317.87H2441.28V322.87ZM2444.35 376.72L2439.9 379.006L2439.94 379.083L2439.98 379.159L2444.35 376.72ZM2466.67 377.742L2462.53 374.935L2462.5 374.986L2462.47 375.038L2466.67 377.742ZM2467.18 339.059L2462.38 340.456L2462.39 340.468L2462.39 340.48L2467.18 339.059ZM2457.64 321.336L2453.7 324.412L2453.73 324.455L2453.77 324.498L2457.64 321.336ZM2439.07 301.569L2435.62 305.195L2435.63 305.201L2435.64 305.207L2439.07 301.569ZM2412.14 276.007L2415.58 272.381L2415.58 272.376L2415.57 272.371L2412.14 276.007ZM2399.7 152.46L2395.97 149.136L2395.96 149.145L2395.95 149.154L2399.7 152.46ZM2509.79 154.334L2505.85 157.417L2505.86 157.426L2505.86 157.436L2509.79 154.334ZM2527.17 221.135V226.135H2532.17V221.135H2527.17ZM2466.16 221.135H2461.16V226.135H2466.16V221.135ZM2462.58 190.973L2459.05 194.508L2459.09 194.551L2459.13 194.593L2462.58 190.973ZM2442.64 191.654L2438.8 188.453L2438.8 188.462L2438.79 188.47L2442.64 191.654ZM2456.28 232.382L2459.74 228.776L2459.73 228.766L2459.72 228.756L2456.28 232.382ZM2490.87 265.612L2487.41 269.218L2487.42 269.227L2487.43 269.236L2490.87 265.612ZM2509.96 286.573L2506.02 289.659L2506.03 289.674L2506.05 289.689L2509.96 286.573ZM2523.93 312.134L2519.23 313.83L2519.23 313.839L2519.23 313.847L2523.93 312.134ZM2513.54 413.869L2509.35 411.137L2509.34 411.144L2513.54 413.869ZM2459.34 432.727C2432.68 432.727 2414.59 426.081 2403.77 413.95L2396.31 420.605C2409.8 435.739 2431.26 442.727 2459.34 442.727V432.727ZM2403.79 413.967C2392.93 401.676 2386.98 381.453 2386.98 352.181H2376.98C2376.98 382.438 2383.07 405.614 2396.29 420.588L2403.79 413.967ZM2386.98 352.181V322.87H2376.98V352.181H2386.98ZM2381.98 327.87H2441.28V317.87H2381.98V327.87ZM2436.28 322.87V360.36H2446.28V322.87H2436.28ZM2436.28 360.36C2436.28 367.69 2437.35 374.039 2439.9 379.006L2448.8 374.433C2447.26 371.448 2446.28 366.891 2446.28 360.36H2436.28ZM2439.98 379.159C2443.2 384.917 2448.78 387.514 2455.43 387.514V377.514C2451.62 377.514 2449.81 376.247 2448.71 374.281L2439.98 379.159ZM2455.43 387.514C2461.77 387.514 2467.55 385.63 2470.88 380.446L2462.47 375.038C2461.71 376.217 2459.99 377.514 2455.43 377.514V387.514ZM2470.81 380.55C2473.84 376.08 2474.91 369.578 2474.91 362.064H2464.91C2464.91 369.093 2463.82 373.043 2462.53 374.935L2470.81 380.55ZM2474.91 362.064C2474.91 352.573 2473.98 344.388 2471.98 337.639L2462.39 340.48C2464.03 346 2464.91 353.152 2464.91 362.064H2474.91ZM2471.98 337.662C2469.96 330.705 2466.44 324.207 2461.51 318.175L2453.77 324.498C2457.93 329.599 2460.77 334.916 2462.38 340.456L2471.98 337.662ZM2461.58 318.261C2456.94 312.306 2450.55 305.524 2442.5 297.931L2435.64 305.207C2443.49 312.61 2449.48 319.006 2453.7 324.412L2461.58 318.261ZM2442.51 297.943L2415.58 272.381L2408.7 279.633L2435.62 305.195L2442.51 297.943ZM2415.57 272.371C2396.32 254.206 2386.98 233.772 2386.98 210.911H2376.98C2376.98 236.9 2387.75 259.864 2408.71 279.644L2415.57 272.371ZM2386.98 210.911C2386.98 186.049 2392.73 167.933 2403.45 155.766L2395.95 149.154C2383.04 163.798 2376.98 184.65 2376.98 210.911H2386.98ZM2403.44 155.784C2414.19 143.704 2429.88 137.352 2451.34 137.352V127.352C2427.8 127.352 2409.07 134.405 2395.97 149.136L2403.44 155.784ZM2451.34 137.352C2478.05 137.352 2495.71 144.465 2505.85 157.417L2513.72 151.252C2500.92 134.893 2479.61 127.352 2451.34 127.352V137.352ZM2505.86 157.436C2516.44 170.817 2522.17 191.754 2522.17 221.135H2532.17C2532.17 190.76 2526.3 167.163 2513.71 151.233L2505.86 157.436ZM2527.17 216.135H2466.16V226.135H2527.17V216.135ZM2471.16 221.135V200.516H2461.16V221.135H2471.16ZM2471.16 200.516C2471.16 195.41 2469.64 190.786 2466.03 187.352L2459.13 194.593C2460.3 195.704 2461.16 197.442 2461.16 200.516H2471.16ZM2466.12 187.437C2462.7 184.015 2458.18 182.564 2453.21 182.564V192.564C2456.19 192.564 2457.92 193.386 2459.05 194.508L2466.12 187.437ZM2453.21 182.564C2447.5 182.564 2442.33 184.227 2438.8 188.453L2446.49 194.855C2447.51 193.628 2449.38 192.564 2453.21 192.564V182.564ZM2438.79 188.47C2435.73 192.178 2434.41 196.801 2434.41 201.879H2444.41C2444.41 198.55 2445.25 196.356 2446.5 194.839L2438.79 188.47ZM2434.41 201.879C2434.41 206.986 2435.79 212.254 2438.28 217.62L2447.35 213.403C2445.3 208.999 2444.41 205.179 2444.41 201.879H2434.41ZM2438.28 217.62C2440.94 223.343 2445.96 229.479 2452.84 236.009L2459.72 228.756C2453.19 222.562 2449.23 217.451 2447.35 213.403L2438.28 217.62ZM2452.81 235.988L2487.41 269.218L2494.33 262.006L2459.74 228.776L2452.81 235.988ZM2487.43 269.236C2494.18 275.661 2500.38 282.469 2506.02 289.659L2513.89 283.486C2507.94 275.908 2501.42 268.742 2494.32 261.989L2487.43 269.236ZM2506.05 289.689C2511.46 296.486 2515.87 304.514 2519.23 313.83L2528.63 310.439C2524.95 300.214 2520.04 291.201 2513.87 283.457L2506.05 289.689ZM2519.23 313.847C2522.5 322.797 2524.21 333.994 2524.21 347.58H2534.21C2534.21 333.218 2532.41 320.785 2528.63 310.421L2519.23 313.847ZM2524.21 347.58C2524.21 375.217 2519.07 396.23 2509.35 411.137L2517.72 416.601C2528.9 399.471 2534.21 376.292 2534.21 347.58H2524.21ZM2509.34 411.144C2500.24 425.146 2484.11 432.727 2459.34 432.727V442.727C2486.15 442.727 2506.15 434.402 2517.73 416.594L2509.34 411.144Z" fill="black"/>
<path d="M79.752 412.727C66.2327 412.727 53.9064 410.114 42.7729 404.888C31.6395 399.662 22.7782 391.937 16.189 381.712C9.71338 371.374 6.47559 358.707 6.47559 343.71V268.56H65.7783V340.132C65.7783 345.358 66.8008 349.561 68.8457 352.742C71.0042 355.923 74.4124 357.514 79.0703 357.514C88.0452 357.514 92.5327 352.004 92.5327 340.984V110.078H153.028V335.02C153.028 350.924 149.904 364.728 143.656 376.429C137.407 388.017 128.773 396.992 117.753 403.354C106.734 409.602 94.0664 412.727 79.752 412.727ZM245.561 412.727C220.568 412.727 202.163 405.74 190.348 391.766C178.533 377.679 172.625 357.002 172.625 329.737V110.078H230.906V327.351C230.906 332.35 231.19 337.178 231.758 341.836C232.326 346.38 233.632 350.129 235.677 353.083C237.722 356.037 241.017 357.514 245.561 357.514C250.219 357.514 253.57 356.094 255.615 353.253C257.66 350.3 258.91 346.494 259.364 341.836C259.932 337.178 260.216 332.35 260.216 327.351V110.078H318.497V329.737C318.497 357.002 312.589 377.679 300.774 391.766C288.959 405.74 270.555 412.727 245.561 412.727ZM412.733 412.727C385.354 412.727 365.587 405.91 353.431 392.277C341.388 378.645 335.367 356.946 335.367 327.181V297.87H394.67V335.36C394.67 342.29 395.692 347.743 397.737 351.72C399.896 355.582 403.588 357.514 408.814 357.514C414.267 357.514 418.016 355.923 420.061 352.742C422.22 349.561 423.299 344.335 423.299 337.064C423.299 327.862 422.39 320.194 420.572 314.059C418.755 307.811 415.574 301.903 411.029 296.336C406.599 290.656 400.407 284.067 392.455 276.569L365.53 251.007C345.421 232.035 335.367 210.336 335.367 185.911C335.367 160.349 341.275 140.866 353.09 127.46C365.019 114.054 382.23 107.352 404.724 107.352C432.217 107.352 451.701 114.679 463.175 129.334C474.763 143.99 480.557 166.257 480.557 196.135H419.55V175.516C419.55 171.426 418.357 168.245 415.971 165.973C413.699 163.701 410.575 162.564 406.599 162.564C401.827 162.564 398.305 163.928 396.033 166.654C393.875 169.267 392.795 172.675 392.795 176.879C392.795 181.082 393.931 185.627 396.204 190.512C398.476 195.397 402.963 201.02 409.666 207.382L444.259 240.612C451.189 247.201 457.551 254.188 463.345 261.573C469.139 268.844 473.797 277.364 477.319 287.134C480.841 296.791 482.602 308.606 482.602 322.58C482.602 350.754 477.376 372.851 466.924 388.869C456.586 404.774 438.522 412.727 412.733 412.727ZM528.442 410V167.677H492.826V110.078H624.042V167.677H588.426V410H528.442ZM722.539 410V110.078H784.228L811.834 253.734V110.078H869.773V410H811.152L781.16 260.039V410H722.539ZM896.357 410V110.078H1016.33V168.018H957.364V226.468H1013.94V282.874H957.364V351.549H1020.25V410H896.357ZM1063.7 410L1031.49 110.078H1090.11L1106.64 299.404L1123.51 110.078H1179.41L1195.43 299.404L1211.45 110.078H1270.75L1238.03 410H1166.12L1151.12 265.663L1136.81 410H1063.7ZM1370.44 410V110.078H1490.41V168.529H1430.76V216.244H1487.34V274.013H1430.76V410H1370.44ZM1507.11 410V110.078H1565.05V410H1507.11ZM1588.9 410V110.078H1650.59L1678.2 253.734V110.078H1736.14V410H1677.52L1647.53 260.039V410H1588.9ZM1762.72 410V110.078H1845.2C1866.79 110.078 1883.03 116.099 1893.94 128.142C1904.84 140.07 1910.3 157.566 1910.3 180.628V321.046C1910.3 349.448 1905.3 371.374 1895.3 386.824C1885.42 402.275 1868.04 410 1843.16 410H1762.72ZM1823.05 357.002H1833.44C1844.46 357.002 1849.97 351.663 1849.97 340.984V186.251C1849.97 176.254 1848.61 169.835 1845.88 166.995C1843.27 164.041 1837.87 162.564 1829.69 162.564H1823.05V357.002ZM1932.11 410V110.078H1990.05V410H1932.11ZM2013.91 410V110.078H2075.6L2103.2 253.734V110.078H2161.14V410H2102.52L2072.53 260.039V410H2013.91ZM2249.58 412.727C2206.75 412.727 2185.34 382.053 2185.34 320.705V191.364C2185.34 135.356 2209.88 107.352 2258.96 107.352C2279.18 107.352 2294.69 111.441 2305.48 119.621C2316.27 127.687 2323.71 139.502 2327.8 155.066C2331.89 170.631 2333.94 189.603 2333.94 211.983H2275.32V185.399C2275.32 178.924 2274.41 173.528 2272.59 169.21C2270.89 164.78 2267.25 162.564 2261.68 162.564C2254.75 162.564 2250.15 164.893 2247.88 169.551C2245.72 174.209 2244.64 179.321 2244.64 184.888V330.248C2244.64 338.314 2245.67 344.903 2247.71 350.016C2249.87 355.014 2254.02 357.514 2260.15 357.514C2266.51 357.514 2270.72 355.014 2272.76 350.016C2274.92 344.903 2276 338.201 2276 329.907V287.134H2259.98V235.33H2333.26V410H2309.23L2299 384.779C2288.55 403.411 2272.08 412.727 2249.58 412.727ZM2428.34 412.727C2400.97 412.727 2381.2 405.91 2369.04 392.277C2357 378.645 2350.98 356.946 2350.98 327.181V297.87H2410.28V335.36C2410.28 342.29 2411.3 347.743 2413.35 351.72C2415.51 355.582 2419.2 357.514 2424.43 357.514C2429.88 357.514 2433.63 355.923 2435.67 352.742C2437.83 349.561 2438.91 344.335 2438.91 337.064C2438.91 327.862 2438 320.194 2436.18 314.059C2434.37 307.811 2431.18 301.903 2426.64 296.336C2422.21 290.656 2416.02 284.067 2408.07 276.569L2381.14 251.007C2361.03 232.035 2350.98 210.336 2350.98 185.911C2350.98 160.349 2356.89 140.866 2368.7 127.46C2380.63 114.054 2397.84 107.352 2420.34 107.352C2447.83 107.352 2467.31 114.679 2478.79 129.334C2490.37 143.99 2496.17 166.257 2496.17 196.135H2435.16V175.516C2435.16 171.426 2433.97 168.245 2431.58 165.973C2429.31 163.701 2426.19 162.564 2422.21 162.564C2417.44 162.564 2413.92 163.928 2411.64 166.654C2409.49 169.267 2408.41 172.675 2408.41 176.879C2408.41 181.082 2409.54 185.627 2411.81 190.512C2414.09 195.397 2418.57 201.02 2425.28 207.382L2459.87 240.612C2466.8 247.201 2473.16 254.188 2478.96 261.573C2484.75 268.844 2489.41 277.364 2492.93 287.134C2496.45 296.791 2498.21 308.606 2498.21 322.58C2498.21 350.754 2492.99 372.851 2482.54 388.869C2472.2 404.774 2454.13 412.727 2428.34 412.727Z" fill="#FFD600"/>
<path d="M16.189 381.712L12.3753 384.101L12.3907 384.125L12.4064 384.15L16.189 381.712ZM6.47559 268.56V264.06H1.97559V268.56H6.47559ZM65.7783 268.56H70.2783V264.06H65.7783V268.56ZM68.8457 352.742L65.0604 355.176L65.0907 355.223L65.1221 355.269L68.8457 352.742ZM92.5327 110.078V105.578H88.0327V110.078H92.5327ZM153.028 110.078H157.528V105.578H153.028V110.078ZM143.656 376.429L147.617 378.565L147.621 378.557L147.625 378.549L143.656 376.429ZM117.753 403.354L119.973 407.269L119.988 407.26L120.003 407.251L117.753 403.354ZM79.752 408.227C66.8274 408.227 55.1629 405.732 44.685 400.814L40.8609 408.961C52.6499 414.495 65.6381 417.227 79.752 417.227V408.227ZM44.685 400.814C34.3073 395.943 26.0978 388.781 19.9715 379.274L12.4064 384.15C19.4585 395.093 28.9717 403.381 40.8609 408.961L44.685 400.814ZM20.0026 379.323C14.0684 369.849 10.9756 358.056 10.9756 343.71H1.97559C1.97559 359.358 5.35838 372.898 12.3753 384.101L20.0026 379.323ZM10.9756 343.71V268.56H1.97559V343.71H10.9756ZM6.47559 273.06H65.7783V264.06H6.47559V273.06ZM61.2783 268.56V340.132H70.2783V268.56H61.2783ZM61.2783 340.132C61.2783 345.903 62.4025 351.041 65.0604 355.176L72.631 350.309C71.199 348.081 70.2783 344.813 70.2783 340.132H61.2783ZM65.1221 355.269C68.302 359.955 73.2813 362.014 79.0703 362.014V353.014C75.5436 353.014 73.7065 351.891 72.5693 350.215L65.1221 355.269ZM79.0703 362.014C84.5234 362.014 89.3401 360.295 92.6563 356.223C95.8286 352.328 97.0327 346.989 97.0327 340.984H88.0327C88.0327 345.999 86.9931 348.925 85.6779 350.539C84.5067 351.978 82.5922 353.014 79.0703 353.014V362.014ZM97.0327 340.984V110.078H88.0327V340.984H97.0327ZM92.5327 114.578H153.028V105.578H92.5327V114.578ZM148.528 110.078V335.02H157.528V110.078H148.528ZM148.528 335.02C148.528 350.331 145.523 363.378 139.686 374.31L147.625 378.549C154.285 366.077 157.528 351.518 157.528 335.02H148.528ZM139.695 374.293C133.828 385.174 125.775 393.527 115.504 399.457L120.003 407.251C131.772 400.457 140.987 390.861 147.617 378.565L139.695 374.293ZM115.534 399.439C105.275 405.256 93.3913 408.227 79.752 408.227V417.227C94.7415 417.227 108.192 413.948 119.973 407.269L115.534 399.439ZM190.348 391.766L186.9 394.658L186.906 394.665L186.912 394.672L190.348 391.766ZM172.625 110.078V105.578H168.125V110.078H172.625ZM230.906 110.078H235.406V105.578H230.906V110.078ZM231.758 341.836L227.291 342.381L227.293 342.394L231.758 341.836ZM255.615 353.253L259.267 355.883L259.291 355.849L259.315 355.815L255.615 353.253ZM259.364 341.836L254.897 341.291L254.891 341.345L254.886 341.399L259.364 341.836ZM260.216 110.078V105.578H255.716V110.078H260.216ZM318.497 110.078H322.997V105.578H318.497V110.078ZM300.774 391.766L304.21 394.672L304.216 394.665L304.222 394.658L300.774 391.766ZM245.561 408.227C221.382 408.227 204.462 401.489 193.784 388.861L186.912 394.672C199.864 409.99 219.753 417.227 245.561 417.227V408.227ZM193.796 388.874C182.922 375.909 177.125 356.439 177.125 329.737H168.125C168.125 357.566 174.144 379.449 186.9 394.658L193.796 388.874ZM177.125 329.737V110.078H168.125V329.737H177.125ZM172.625 114.578H230.906V105.578H172.625V114.578ZM226.406 110.078V327.351H235.406V110.078H226.406ZM226.406 327.351C226.406 332.52 226.699 337.531 227.291 342.381L236.225 341.291C235.68 336.825 235.406 332.179 235.406 327.351H226.406ZM227.293 342.394C227.926 347.466 229.422 351.953 231.977 355.644L239.377 350.522C237.843 348.305 236.725 345.295 236.223 341.278L227.293 342.394ZM231.977 355.644C235.085 360.133 239.979 362.014 245.561 362.014V353.014C242.055 353.014 240.359 351.94 239.377 350.522L231.977 355.644ZM245.561 362.014C251.143 362.014 256.111 360.266 259.267 355.883L251.963 350.624C251.03 351.921 249.295 353.014 245.561 353.014V362.014ZM259.315 355.815C261.909 352.068 263.336 347.469 263.843 342.273L254.886 341.399C254.484 345.518 253.411 348.531 251.915 350.692L259.315 355.815ZM263.831 342.381C264.423 337.531 264.716 332.52 264.716 327.351H255.716C255.716 332.179 255.442 336.825 254.897 341.291L263.831 342.381ZM264.716 327.351V110.078H255.716V327.351H264.716ZM260.216 114.578H318.497V105.578H260.216V114.578ZM313.997 110.078V329.737H322.997V110.078H313.997ZM313.997 329.737C313.997 356.439 308.2 375.909 297.326 388.874L304.222 394.658C316.978 379.449 322.997 357.566 322.997 329.737H313.997ZM297.338 388.861C286.66 401.489 269.74 408.227 245.561 408.227V417.227C271.369 417.227 291.258 409.99 304.21 394.672L297.338 388.861ZM353.431 392.277L350.058 395.256L350.065 395.264L350.072 395.272L353.431 392.277ZM335.367 297.87V293.37H330.867V297.87H335.367ZM394.67 297.87H399.17V293.37H394.67V297.87ZM397.737 351.72L393.736 353.778L393.771 353.847L393.809 353.915L397.737 351.72ZM420.061 352.742L416.337 350.215L416.306 350.262L416.276 350.309L420.061 352.742ZM420.572 314.059L416.251 315.316L416.255 315.327L416.258 315.337L420.572 314.059ZM411.029 296.336L407.481 299.104L407.512 299.143L407.543 299.182L411.029 296.336ZM392.455 276.569L389.356 279.832L389.362 279.838L389.368 279.843L392.455 276.569ZM365.53 251.007L368.628 247.744L368.618 247.734L365.53 251.007ZM353.09 127.46L349.728 124.469L349.721 124.477L349.714 124.485L353.09 127.46ZM463.175 129.334L459.632 132.109L459.638 132.117L459.645 132.126L463.175 129.334ZM480.557 196.135V200.635H485.057V196.135H480.557ZM419.55 196.135H415.05V200.635H419.55V196.135ZM415.971 165.973L412.789 169.155L412.828 169.193L412.868 169.231L415.971 165.973ZM396.033 166.654L392.576 163.773L392.57 163.781L392.564 163.788L396.033 166.654ZM409.666 207.382L412.783 204.137L412.774 204.128L412.764 204.118L409.666 207.382ZM444.259 240.612L441.142 243.858L441.15 243.866L441.159 243.873L444.259 240.612ZM463.345 261.573L459.805 264.351L459.815 264.364L459.826 264.377L463.345 261.573ZM477.319 287.134L473.085 288.66L473.088 288.668L473.091 288.676L477.319 287.134ZM466.924 388.869L463.155 386.41L463.151 386.417L466.924 388.869ZM412.733 408.227C385.993 408.227 367.74 401.564 356.789 389.282L350.072 395.272C363.433 410.256 384.716 417.227 412.733 417.227V408.227ZM356.803 389.298C345.827 376.872 339.867 356.502 339.867 327.181H330.867C330.867 357.389 336.949 380.417 350.058 395.256L356.803 389.298ZM339.867 327.181V297.87H330.867V327.181H339.867ZM335.367 302.37H394.67V293.37H335.367V302.37ZM390.17 297.87V335.36H399.17V297.87H390.17ZM390.17 335.36C390.17 342.65 391.232 348.91 393.736 353.778L401.739 349.662C400.153 346.577 399.17 341.931 399.17 335.36H390.17ZM393.809 353.915C396.921 359.484 402.31 362.014 408.814 362.014V353.014C404.866 353.014 402.871 351.681 401.666 349.525L393.809 353.915ZM408.814 362.014C415.065 362.014 420.643 360.159 423.846 355.176L416.276 350.309C415.39 351.687 413.469 353.014 408.814 353.014V362.014ZM423.785 355.269C426.73 350.928 427.799 344.553 427.799 337.064H418.799C418.799 344.117 417.709 348.194 416.337 350.215L423.785 355.269ZM427.799 337.064C427.799 327.602 426.868 319.468 424.887 312.781L416.258 315.337C417.912 320.919 418.799 328.123 418.799 337.064H427.799ZM424.893 312.802C422.89 305.916 419.402 299.477 414.515 293.491L407.543 299.182C411.745 304.33 414.619 309.706 416.251 315.316L424.893 312.802ZM414.578 293.569C409.954 287.641 403.585 280.878 395.542 273.295L389.368 279.843C397.229 287.256 403.243 293.671 407.481 299.104L414.578 293.569ZM395.553 273.305L368.628 247.744L362.431 254.271L389.356 279.832L395.553 273.305ZM368.618 247.734C349.28 229.489 339.867 208.928 339.867 185.911H330.867C330.867 211.744 341.563 234.581 362.442 254.28L368.618 247.734ZM339.867 185.911C339.867 160.979 345.633 142.726 356.466 130.435L349.714 124.485C336.916 139.005 330.867 159.72 330.867 185.911H339.867ZM356.452 130.451C367.318 118.239 383.164 111.852 404.724 111.852V102.852C381.296 102.852 362.719 109.87 349.728 124.469L356.452 130.451ZM404.724 111.852C431.517 111.852 449.358 118.986 459.632 132.109L466.718 126.56C454.043 110.372 432.917 102.852 404.724 102.852V111.852ZM459.645 132.126C470.326 145.634 476.057 166.704 476.057 196.135H485.057C485.057 165.809 479.199 142.346 466.705 126.543L459.645 132.126ZM480.557 191.635H419.55V200.635H480.557V191.635ZM424.05 196.135V175.516H415.05V196.135H424.05ZM424.05 175.516C424.05 170.511 422.558 166.032 419.075 162.714L412.868 169.231C414.155 170.458 415.05 172.34 415.05 175.516H424.05ZM419.153 162.791C415.846 159.484 411.468 158.064 406.599 158.064V167.064C409.682 167.064 411.552 167.917 412.789 169.155L419.153 162.791ZM406.599 158.064C400.98 158.064 395.973 159.697 392.576 163.773L399.49 169.535C400.638 168.158 402.675 167.064 406.599 167.064V158.064ZM392.564 163.788C389.591 167.387 388.295 171.888 388.295 176.879H397.295C397.295 173.463 398.158 171.147 399.503 169.52L392.564 163.788ZM388.295 176.879C388.295 181.895 389.65 187.091 392.123 192.41L400.284 188.614C398.213 184.162 397.295 180.269 397.295 176.879H388.295ZM392.123 192.41C394.746 198.048 399.706 204.133 406.568 210.646L412.764 204.118C406.221 197.908 402.205 192.745 400.284 188.614L392.123 192.41ZM406.549 210.628L441.142 243.858L447.377 237.367L412.783 204.137L406.549 210.628ZM441.159 243.873C447.933 250.315 454.148 257.141 459.805 264.351L466.886 258.795C460.954 251.236 454.445 244.088 447.36 237.351L441.159 243.873ZM459.826 264.377C465.28 271.222 469.711 279.299 473.085 288.66L481.552 285.608C477.883 275.429 472.998 266.466 466.864 258.768L459.826 264.377ZM473.091 288.676C476.381 297.696 478.102 308.955 478.102 322.58H487.102C487.102 308.256 485.3 295.885 481.546 285.592L473.091 288.676ZM478.102 322.58C478.102 350.27 472.954 371.392 463.155 386.41L470.693 391.328C481.797 374.309 487.102 351.238 487.102 322.58H478.102ZM463.151 386.417C453.926 400.609 437.604 408.227 412.733 408.227V417.227C439.44 417.227 459.245 408.939 470.697 391.322L463.151 386.417ZM528.442 410H523.942V414.5H528.442V410ZM528.442 167.677H532.942V163.177H528.442V167.677ZM492.826 167.677H488.326V172.177H492.826V167.677ZM492.826 110.078V105.578H488.326V110.078H492.826ZM624.042 110.078H628.542V105.578H624.042V110.078ZM624.042 167.677V172.177H628.542V167.677H624.042ZM588.426 167.677V163.177H583.926V167.677H588.426ZM588.426 410V414.5H592.926V410H588.426ZM532.942 410V167.677H523.942V410H532.942ZM528.442 163.177H492.826V172.177H528.442V163.177ZM497.326 167.677V110.078H488.326V167.677H497.326ZM492.826 114.578H624.042V105.578H492.826V114.578ZM619.542 110.078V167.677H628.542V110.078H619.542ZM624.042 163.177H588.426V172.177H624.042V163.177ZM583.926 167.677V410H592.926V167.677H583.926ZM588.426 405.5H528.442V414.5H588.426V405.5ZM722.539 410H718.039V414.5H722.539V410ZM722.539 110.078V105.578H718.039V110.078H722.539ZM784.228 110.078L788.647 109.229L787.945 105.578H784.228V110.078ZM811.834 253.734L807.415 254.583L816.334 253.734H811.834ZM811.834 110.078V105.578H807.334V110.078H811.834ZM869.773 110.078H874.273V105.578H869.773V110.078ZM869.773 410V414.5H874.273V410H869.773ZM811.152 410L806.74 410.883L807.463 414.5H811.152V410ZM781.16 260.039L785.573 259.157L776.66 260.039H781.16ZM781.16 410V414.5H785.66V410H781.16ZM727.039 410V110.078H718.039V410H727.039ZM722.539 114.578H784.228V105.578H722.539V114.578ZM779.808 110.927L807.415 254.583L816.253 252.885L788.647 109.229L779.808 110.927ZM816.334 253.734V110.078H807.334V253.734H816.334ZM811.834 114.578H869.773V105.578H811.834V114.578ZM865.273 110.078V410H874.273V110.078H865.273ZM869.773 405.5H811.152V414.5H869.773V405.5ZM815.565 409.117L785.573 259.157L776.748 260.922L806.74 410.883L815.565 409.117ZM776.66 260.039V410H785.66V260.039H776.66ZM781.16 405.5H722.539V414.5H781.16V405.5ZM896.357 410H891.857V414.5H896.357V410ZM896.357 110.078V105.578H891.857V110.078H896.357ZM1016.33 110.078H1020.83V105.578H1016.33V110.078ZM1016.33 168.018V172.518H1020.83V168.018H1016.33ZM957.364 168.018V163.518H952.864V168.018H957.364ZM957.364 226.468H952.864V230.968H957.364V226.468ZM1013.94 226.468H1018.44V221.968H1013.94V226.468ZM1013.94 282.874V287.374H1018.44V282.874H1013.94ZM957.364 282.874V278.374H952.864V282.874H957.364ZM957.364 351.549H952.864V356.049H957.364V351.549ZM1020.25 351.549H1024.75V347.049H1020.25V351.549ZM1020.25 410V414.5H1024.75V410H1020.25ZM900.857 410V110.078H891.857V410H900.857ZM896.357 114.578H1016.33V105.578H896.357V114.578ZM1011.83 110.078V168.018H1020.83V110.078H1011.83ZM1016.33 163.518H957.364V172.518H1016.33V163.518ZM952.864 168.018V226.468H961.864V168.018H952.864ZM957.364 230.968H1013.94V221.968H957.364V230.968ZM1009.44 226.468V282.874H1018.44V226.468H1009.44ZM1013.94 278.374H957.364V287.374H1013.94V278.374ZM952.864 282.874V351.549H961.864V282.874H952.864ZM957.364 356.049H1020.25V347.049H957.364V356.049ZM1015.75 351.549V410H1024.75V351.549H1015.75ZM1020.25 405.5H896.357V414.5H1020.25V405.5ZM1063.7 410L1059.23 410.48L1059.66 414.5H1063.7V410ZM1031.49 110.078V105.578H1026.48L1027.02 110.559L1031.49 110.078ZM1090.11 110.078L1094.6 109.687L1094.24 105.578H1090.11V110.078ZM1106.64 299.404L1102.16 299.795L1111.13 299.803L1106.64 299.404ZM1123.51 110.078V105.578H1119.4L1119.03 109.679L1123.51 110.078ZM1179.41 110.078L1183.89 109.699L1183.54 105.578H1179.41V110.078ZM1195.43 299.404L1190.94 299.783H1199.91L1195.43 299.404ZM1211.45 110.078V105.578H1207.31L1206.96 109.699L1211.45 110.078ZM1270.75 110.078L1275.22 110.566L1275.77 105.578H1270.75V110.078ZM1238.03 410V414.5H1242.07L1242.5 410.488L1238.03 410ZM1166.12 410L1161.64 410.465L1162.06 414.5H1166.12V410ZM1151.12 265.663L1155.6 265.198L1146.64 265.218L1151.12 265.663ZM1136.81 410V414.5H1140.88L1141.28 410.444L1136.81 410ZM1068.17 409.52L1035.97 109.598L1027.02 110.559L1059.23 410.48L1068.17 409.52ZM1031.49 114.578H1090.11V105.578H1031.49V114.578ZM1085.63 110.47L1102.16 299.795L1111.13 299.012L1094.6 109.687L1085.63 110.47ZM1111.13 299.803L1128 110.478L1119.03 109.679L1102.16 299.004L1111.13 299.803ZM1123.51 114.578H1179.41V105.578H1123.51V114.578ZM1174.92 110.458L1190.94 299.783L1199.91 299.024L1183.89 109.699L1174.92 110.458ZM1199.91 299.783L1215.93 110.458L1206.96 109.699L1190.94 299.024L1199.91 299.783ZM1211.45 114.578H1270.75V105.578H1211.45V114.578ZM1266.28 109.59L1233.56 409.512L1242.5 410.488L1275.22 110.566L1266.28 109.59ZM1238.03 405.5H1166.12V414.5H1238.03V405.5ZM1170.59 409.535L1155.6 265.198L1146.64 266.128L1161.64 410.465L1170.59 409.535ZM1146.64 265.218L1132.33 409.556L1141.28 410.444L1155.6 266.107L1146.64 265.218ZM1136.81 405.5H1063.7V414.5H1136.81V405.5ZM1370.44 410H1365.94V414.5H1370.44V410ZM1370.44 110.078V105.578H1365.94V110.078H1370.44ZM1490.41 110.078H1494.91V105.578H1490.41V110.078ZM1490.41 168.529V173.029H1494.91V168.529H1490.41ZM1430.76 168.529V164.029H1426.26V168.529H1430.76ZM1430.76 216.244H1426.26V220.744H1430.76V216.244ZM1487.34 216.244H1491.84V211.744H1487.34V216.244ZM1487.34 274.013V278.513H1491.84V274.013H1487.34ZM1430.76 274.013V269.513H1426.26V274.013H1430.76ZM1430.76 410V414.5H1435.26V410H1430.76ZM1374.94 410V110.078H1365.94V410H1374.94ZM1370.44 114.578H1490.41V105.578H1370.44V114.578ZM1485.91 110.078V168.529H1494.91V110.078H1485.91ZM1490.41 164.029H1430.76V173.029H1490.41V164.029ZM1426.26 168.529V216.244H1435.26V168.529H1426.26ZM1430.76 220.744H1487.34V211.744H1430.76V220.744ZM1482.84 216.244V274.013H1491.84V216.244H1482.84ZM1487.34 269.513H1430.76V278.513H1487.34V269.513ZM1426.26 274.013V410H1435.26V274.013H1426.26ZM1430.76 405.5H1370.44V414.5H1430.76V405.5ZM1507.11 410H1502.61V414.5H1507.11V410ZM1507.11 110.078V105.578H1502.61V110.078H1507.11ZM1565.05 110.078H1569.55V105.578H1565.05V110.078ZM1565.05 410V414.5H1569.55V410H1565.05ZM1511.61 410V110.078H1502.61V410H1511.61ZM1507.11 114.578H1565.05V105.578H1507.11V114.578ZM1560.55 110.078V410H1569.55V110.078H1560.55ZM1565.05 405.5H1507.11V414.5H1565.05V405.5ZM1588.9 410H1584.4V414.5H1588.9V410ZM1588.9 110.078V105.578H1584.4V110.078H1588.9ZM1650.59 110.078L1655.01 109.229L1654.31 105.578H1650.59V110.078ZM1678.2 253.734L1673.78 254.583L1682.7 253.734H1678.2ZM1678.2 110.078V105.578H1673.7V110.078H1678.2ZM1736.14 110.078H1740.64V105.578H1736.14V110.078ZM1736.14 410V414.5H1740.64V410H1736.14ZM1677.52 410L1673.1 410.883L1673.83 414.5H1677.52V410ZM1647.53 260.039L1651.94 259.157L1643.03 260.039H1647.53ZM1647.53 410V414.5H1652.03V410H1647.53ZM1593.4 410V110.078H1584.4V410H1593.4ZM1588.9 114.578H1650.59V105.578H1588.9V114.578ZM1646.17 110.927L1673.78 254.583L1682.62 252.885L1655.01 109.229L1646.17 110.927ZM1682.7 253.734V110.078H1673.7V253.734H1682.7ZM1678.2 114.578H1736.14V105.578H1678.2V114.578ZM1731.64 110.078V410H1740.64V110.078H1731.64ZM1736.14 405.5H1677.52V414.5H1736.14V405.5ZM1681.93 409.117L1651.94 259.157L1643.11 260.922L1673.1 410.883L1681.93 409.117ZM1643.03 260.039V410H1652.03V260.039H1643.03ZM1647.53 405.5H1588.9V414.5H1647.53V405.5ZM1762.72 410H1758.22V414.5H1762.72V410ZM1762.72 110.078V105.578H1758.22V110.078H1762.72ZM1893.94 128.142L1890.6 131.162L1890.61 131.17L1890.62 131.178L1893.94 128.142ZM1895.3 386.824L1891.52 384.38L1891.52 384.389L1891.51 384.399L1895.3 386.824ZM1823.05 357.002H1818.55V361.502H1823.05V357.002ZM1845.88 166.995L1842.51 169.977L1842.57 170.045L1842.64 170.112L1845.88 166.995ZM1823.05 162.564V158.064H1818.55V162.564H1823.05ZM1767.22 410V110.078H1758.22V410H1767.22ZM1762.72 114.578H1845.2V105.578H1762.72V114.578ZM1845.2 114.578C1865.95 114.578 1880.81 120.344 1890.6 131.162L1897.27 125.121C1885.26 111.854 1867.62 105.578 1845.2 105.578V114.578ZM1890.62 131.178C1900.5 141.982 1905.8 158.213 1905.8 180.628H1914.8C1914.8 156.919 1909.19 138.158 1897.26 125.105L1890.62 131.178ZM1905.8 180.628V321.046H1914.8V180.628H1905.8ZM1905.8 321.046C1905.8 349.016 1900.86 369.953 1891.52 384.38L1899.08 389.269C1909.74 372.795 1914.8 349.879 1914.8 321.046H1905.8ZM1891.51 384.399C1882.74 398.117 1867.11 405.5 1843.16 405.5V414.5C1868.96 414.5 1888.1 406.432 1899.09 389.249L1891.51 384.399ZM1843.16 405.5H1762.72V414.5H1843.16V405.5ZM1823.05 361.502H1833.44V352.502H1823.05V361.502ZM1833.44 361.502C1839.61 361.502 1845.07 360.009 1848.97 356.229C1852.9 352.424 1854.47 347.054 1854.47 340.984H1845.47C1845.47 345.593 1844.29 348.232 1842.71 349.766C1841.1 351.326 1838.29 352.502 1833.44 352.502V361.502ZM1854.47 340.984V186.251H1845.47V340.984H1854.47ZM1854.47 186.251C1854.47 181.084 1854.12 176.636 1853.35 173.004C1852.6 169.463 1851.34 166.184 1849.13 163.879L1842.64 170.112C1843.15 170.646 1843.94 171.997 1844.55 174.874C1845.14 177.661 1845.47 181.422 1845.47 186.251H1854.47ZM1849.25 164.014C1847.17 161.66 1844.27 160.209 1841.06 159.332C1837.85 158.451 1834.02 158.064 1829.69 158.064V167.064C1833.55 167.064 1836.51 167.416 1838.69 168.013C1840.88 168.612 1841.98 169.376 1842.51 169.977L1849.25 164.014ZM1829.69 158.064H1823.05V167.064H1829.69V158.064ZM1818.55 162.564V357.002H1827.55V162.564H1818.55ZM1932.11 410H1927.61V414.5H1932.11V410ZM1932.11 110.078V105.578H1927.61V110.078H1932.11ZM1990.05 110.078H1994.55V105.578H1990.05V110.078ZM1990.05 410V414.5H1994.55V410H1990.05ZM1936.61 410V110.078H1927.61V410H1936.61ZM1932.11 114.578H1990.05V105.578H1932.11V114.578ZM1985.55 110.078V410H1994.55V110.078H1985.55ZM1990.05 405.5H1932.11V414.5H1990.05V405.5ZM2013.91 410H2009.41V414.5H2013.91V410ZM2013.91 110.078V105.578H2009.41V110.078H2013.91ZM2075.6 110.078L2080.01 109.229L2079.31 105.578H2075.6V110.078ZM2103.2 253.734L2098.78 254.583L2107.7 253.734H2103.2ZM2103.2 110.078V105.578H2098.7V110.078H2103.2ZM2161.14 110.078H2165.64V105.578H2161.14V110.078ZM2161.14 410V414.5H2165.64V410H2161.14ZM2102.52 410L2098.11 410.883L2098.83 414.5H2102.52V410ZM2072.53 260.039L2076.94 259.157L2068.03 260.039H2072.53ZM2072.53 410V414.5H2077.03V410H2072.53ZM2018.41 410V110.078H2009.41V410H2018.41ZM2013.91 114.578H2075.6V105.578H2013.91V114.578ZM2071.18 110.927L2098.78 254.583L2107.62 252.885L2080.01 109.229L2071.18 110.927ZM2107.7 253.734V110.078H2098.7V253.734H2107.7ZM2103.2 114.578H2161.14V105.578H2103.2V114.578ZM2156.64 110.078V410H2165.64V110.078H2156.64ZM2161.14 405.5H2102.52V414.5H2161.14V405.5ZM2106.93 409.117L2076.94 259.157L2068.12 260.922L2098.11 410.883L2106.93 409.117ZM2068.03 260.039V410H2077.03V260.039H2068.03ZM2072.53 405.5H2013.91V414.5H2072.53V405.5ZM2305.48 119.621L2302.76 123.207L2302.77 123.217L2302.79 123.226L2305.48 119.621ZM2333.94 211.983V216.483H2338.44V211.983H2333.94ZM2275.32 211.983H2270.82V216.483H2275.32V211.983ZM2272.59 169.21L2268.39 170.826L2268.42 170.892L2268.44 170.957L2272.59 169.21ZM2247.88 169.551L2243.84 167.578L2243.82 167.619L2243.8 167.659L2247.88 169.551ZM2247.71 350.016L2243.53 351.687L2243.55 351.744L2243.58 351.8L2247.71 350.016ZM2272.76 350.016L2268.61 348.265L2268.6 348.288L2268.6 348.312L2272.76 350.016ZM2276 287.134H2280.5V282.634H2276V287.134ZM2259.98 287.134H2255.48V291.634H2259.98V287.134ZM2259.98 235.33V230.83H2255.48V235.33H2259.98ZM2333.26 235.33H2337.76V230.83H2333.26V235.33ZM2333.26 410V414.5H2337.76V410H2333.26ZM2309.23 410L2305.06 411.691L2306.2 414.5H2309.23V410ZM2299 384.779L2303.17 383.089L2299.66 374.415L2295.08 382.578L2299 384.779ZM2249.58 408.227C2229.39 408.227 2214.82 401.088 2205.09 387.145C2195.15 372.908 2189.84 350.994 2189.84 320.705H2180.84C2180.84 351.764 2186.24 375.86 2197.71 392.297C2209.39 409.028 2226.95 417.227 2249.58 417.227V408.227ZM2189.84 320.705V191.364H2180.84V320.705H2189.84ZM2189.84 191.364C2189.84 163.918 2195.87 144.174 2207.13 131.32C2218.29 118.58 2235.28 111.852 2258.96 111.852V102.852C2233.56 102.852 2213.73 110.125 2200.36 125.389C2187.08 140.539 2180.84 162.801 2180.84 191.364H2189.84ZM2258.96 111.852C2278.66 111.852 2293.05 115.849 2302.76 123.207L2308.2 116.035C2296.32 107.034 2279.7 102.852 2258.96 102.852V111.852ZM2302.79 123.226C2312.61 130.57 2319.57 141.432 2323.45 156.21L2332.15 153.923C2327.86 137.573 2319.93 124.804 2308.17 116.017L2302.79 123.226ZM2323.45 156.21C2327.41 171.287 2329.44 189.851 2329.44 211.983H2338.44C2338.44 189.355 2336.37 169.974 2332.15 153.923L2323.45 156.21ZM2333.94 207.483H2275.32V216.483H2333.94V207.483ZM2279.82 211.983V185.399H2270.82V211.983H2279.82ZM2279.82 185.399C2279.82 178.538 2278.86 172.502 2276.74 167.464L2268.44 170.957C2269.96 174.553 2270.82 179.309 2270.82 185.399H2279.82ZM2276.79 167.595C2275.62 164.565 2273.69 162.067 2270.93 160.383C2268.22 158.733 2265.04 158.064 2261.68 158.064V167.064C2263.89 167.064 2265.32 167.504 2266.24 168.069C2267.12 168.6 2267.85 169.425 2268.39 170.826L2276.79 167.595ZM2261.68 158.064C2253.71 158.064 2247.12 160.844 2243.84 167.578L2251.92 171.524C2253.18 168.942 2255.79 167.064 2261.68 167.064V158.064ZM2243.8 167.659C2241.34 172.959 2240.14 178.724 2240.14 184.888H2249.14C2249.14 179.919 2250.1 175.46 2251.96 171.443L2243.8 167.659ZM2240.14 184.888V330.248H2249.14V184.888H2240.14ZM2240.14 330.248C2240.14 338.644 2241.2 345.857 2243.53 351.687L2251.89 348.344C2250.13 343.95 2249.14 337.984 2249.14 330.248H2240.14ZM2243.58 351.8C2244.98 355.049 2247.14 357.7 2250.12 359.493C2253.05 361.265 2256.48 362.014 2260.15 362.014V353.014C2257.69 353.014 2255.97 352.513 2254.76 351.785C2253.59 351.079 2252.6 349.981 2251.84 348.232L2243.58 351.8ZM2260.15 362.014C2263.9 362.014 2267.4 361.277 2270.37 359.507C2273.4 357.705 2275.57 355.024 2276.93 351.719L2268.6 348.312C2267.9 350.006 2266.95 351.074 2265.77 351.771C2264.55 352.5 2262.76 353.014 2260.15 353.014V362.014ZM2276.91 351.766C2279.38 345.896 2280.5 338.532 2280.5 329.907H2271.5C2271.5 337.869 2270.45 343.911 2268.61 348.265L2276.91 351.766ZM2280.5 329.907V287.134H2271.5V329.907H2280.5ZM2276 282.634H2259.98V291.634H2276V282.634ZM2264.48 287.134V235.33H2255.48V287.134H2264.48ZM2259.98 239.83H2333.26V230.83H2259.98V239.83ZM2328.76 235.33V410H2337.76V235.33H2328.76ZM2333.26 405.5H2309.23V414.5H2333.26V405.5ZM2313.4 408.309L2303.17 383.089L2294.83 386.47L2305.06 411.691L2313.4 408.309ZM2295.08 382.578C2285.47 399.699 2270.56 408.227 2249.58 408.227V417.227C2273.6 417.227 2291.63 407.122 2302.93 386.981L2295.08 382.578ZM2369.04 392.277L2365.67 395.256L2365.68 395.264L2365.68 395.272L2369.04 392.277ZM2350.98 297.87V293.37H2346.48V297.87H2350.98ZM2410.28 297.87H2414.78V293.37H2410.28V297.87ZM2413.35 351.72L2409.35 353.778L2409.38 353.847L2409.42 353.915L2413.35 351.72ZM2435.67 352.742L2431.95 350.215L2431.92 350.262L2431.89 350.309L2435.67 352.742ZM2436.18 314.059L2431.86 315.316L2431.87 315.327L2431.87 315.337L2436.18 314.059ZM2426.64 296.336L2423.09 299.104L2423.12 299.143L2423.15 299.182L2426.64 296.336ZM2408.07 276.569L2404.97 279.832L2404.97 279.838L2404.98 279.843L2408.07 276.569ZM2381.14 251.007L2384.24 247.744L2384.23 247.734L2381.14 251.007ZM2368.7 127.46L2365.34 124.469L2365.33 124.477L2365.33 124.485L2368.7 127.46ZM2478.79 129.334L2475.24 132.109L2475.25 132.117L2475.26 132.126L2478.79 129.334ZM2496.17 196.135V200.635H2500.67V196.135H2496.17ZM2435.16 196.135H2430.66V200.635H2435.16V196.135ZM2431.58 165.973L2428.4 169.155L2428.44 169.193L2428.48 169.231L2431.58 165.973ZM2411.64 166.654L2408.19 163.773L2408.18 163.781L2408.18 163.788L2411.64 166.654ZM2425.28 207.382L2428.39 204.137L2428.39 204.128L2428.38 204.118L2425.28 207.382ZM2459.87 240.612L2456.75 243.858L2456.76 243.866L2456.77 243.873L2459.87 240.612ZM2478.96 261.573L2475.42 264.351L2475.43 264.364L2475.44 264.377L2478.96 261.573ZM2492.93 287.134L2488.7 288.66L2488.7 288.668L2488.7 288.676L2492.93 287.134ZM2482.54 388.869L2478.77 386.41L2478.76 386.417L2482.54 388.869ZM2428.34 408.227C2401.6 408.227 2383.35 401.564 2372.4 389.282L2365.68 395.272C2379.04 410.256 2400.33 417.227 2428.34 417.227V408.227ZM2372.41 389.298C2361.44 376.872 2355.48 356.502 2355.48 327.181H2346.48C2346.48 357.389 2352.56 380.417 2365.67 395.256L2372.41 389.298ZM2355.48 327.181V297.87H2346.48V327.181H2355.48ZM2350.98 302.37H2410.28V293.37H2350.98V302.37ZM2405.78 297.87V335.36H2414.78V297.87H2405.78ZM2405.78 335.36C2405.78 342.65 2406.84 348.91 2409.35 353.778L2417.35 349.662C2415.76 346.577 2414.78 341.931 2414.78 335.36H2405.78ZM2409.42 353.915C2412.53 359.484 2417.92 362.014 2424.43 362.014V353.014C2420.48 353.014 2418.48 351.681 2417.28 349.525L2409.42 353.915ZM2424.43 362.014C2430.68 362.014 2436.25 360.159 2439.46 355.176L2431.89 350.309C2431 351.687 2429.08 353.014 2424.43 353.014V362.014ZM2439.4 355.269C2442.34 350.928 2443.41 344.553 2443.41 337.064H2434.41C2434.41 344.117 2433.32 348.194 2431.95 350.215L2439.4 355.269ZM2443.41 337.064C2443.41 327.602 2442.48 319.468 2440.5 312.781L2431.87 315.337C2433.52 320.919 2434.41 328.123 2434.41 337.064H2443.41ZM2440.5 312.802C2438.5 305.916 2435.01 299.477 2430.13 293.491L2423.15 299.182C2427.36 304.33 2430.23 309.706 2431.86 315.316L2440.5 312.802ZM2430.19 293.569C2425.57 287.641 2419.2 280.878 2411.15 273.295L2404.98 279.843C2412.84 287.256 2418.85 293.671 2423.09 299.104L2430.19 293.569ZM2411.16 273.305L2384.24 247.744L2378.04 254.271L2404.97 279.832L2411.16 273.305ZM2384.23 247.734C2364.89 229.489 2355.48 208.928 2355.48 185.911H2346.48C2346.48 211.744 2357.17 234.581 2378.05 254.28L2384.23 247.734ZM2355.48 185.911C2355.48 160.979 2361.24 142.726 2372.08 130.435L2365.33 124.485C2352.53 139.005 2346.48 159.72 2346.48 185.911H2355.48ZM2372.06 130.451C2382.93 118.239 2398.78 111.852 2420.34 111.852V102.852C2396.91 102.852 2378.33 109.87 2365.34 124.469L2372.06 130.451ZM2420.34 111.852C2447.13 111.852 2464.97 118.986 2475.24 132.109L2482.33 126.56C2469.65 110.372 2448.53 102.852 2420.34 102.852V111.852ZM2475.26 132.126C2485.94 145.634 2491.67 166.704 2491.67 196.135H2500.67C2500.67 165.809 2494.81 142.346 2482.32 126.543L2475.26 132.126ZM2496.17 191.635H2435.16V200.635H2496.17V191.635ZM2439.66 196.135V175.516H2430.66V196.135H2439.66ZM2439.66 175.516C2439.66 170.511 2438.17 166.032 2434.69 162.714L2428.48 169.231C2429.77 170.458 2430.66 172.34 2430.66 175.516H2439.66ZM2434.76 162.791C2431.46 159.484 2427.08 158.064 2422.21 158.064V167.064C2425.29 167.064 2427.16 167.917 2428.4 169.155L2434.76 162.791ZM2422.21 158.064C2416.59 158.064 2411.58 159.697 2408.19 163.773L2415.1 169.535C2416.25 168.158 2418.29 167.064 2422.21 167.064V158.064ZM2408.18 163.788C2405.2 167.387 2403.91 171.888 2403.91 176.879H2412.91C2412.91 173.463 2413.77 171.147 2415.11 169.52L2408.18 163.788ZM2403.91 176.879C2403.91 181.895 2405.26 187.091 2407.73 192.41L2415.9 188.614C2413.82 184.162 2412.91 180.269 2412.91 176.879H2403.91ZM2407.73 192.41C2410.36 198.048 2415.32 204.133 2422.18 210.646L2428.38 204.118C2421.83 197.908 2417.82 192.745 2415.9 188.614L2407.73 192.41ZM2422.16 210.628L2456.75 243.858L2462.99 237.367L2428.39 204.137L2422.16 210.628ZM2456.77 243.873C2463.54 250.315 2469.76 257.141 2475.42 264.351L2482.5 258.795C2476.57 251.236 2470.06 244.088 2462.97 237.351L2456.77 243.873ZM2475.44 264.377C2480.89 271.222 2485.32 279.299 2488.7 288.66L2497.16 285.608C2493.49 275.429 2488.61 266.466 2482.48 258.768L2475.44 264.377ZM2488.7 288.676C2491.99 297.696 2493.71 308.955 2493.71 322.58H2502.71C2502.71 308.256 2500.91 295.885 2497.16 285.592L2488.7 288.676ZM2493.71 322.58C2493.71 350.27 2488.57 371.392 2478.77 386.41L2486.3 391.328C2497.41 374.309 2502.71 351.238 2502.71 322.58H2493.71ZM2478.76 386.417C2469.54 400.609 2453.22 408.227 2428.34 408.227V417.227C2455.05 417.227 2474.86 408.939 2486.31 391.322L2478.76 386.417Z" fill="black"/>
</svg>
